<svg xmlns="http://www.w3.org/2000/svg" viewBox="0 0 662.51 398.5"><defs><style>.cls-1{font-size:100px;font-family:BergamotOrnaments, Bergamot Ornaments;}.cls-2{font-size:150px;font-family:Bernadette, Bernadette;}.cls-3{letter-spacing:0em;}.cls-4,.cls-5,.cls-8{stroke:#fff;}.cls-10,.cls-11,.cls-4,.cls-5,.cls-6,.cls-7,.cls-8{stroke-miterlimit:10;}.cls-4{stroke-width:2px;}.cls-11,.cls-6{fill:none;}.cls-10,.cls-11,.cls-6,.cls-7{stroke:#000;}.cls-6,.cls-8{stroke-width:3px;}.cls-10,.cls-7,.cls-9{fill:#fff;}.cls-7{stroke-width:6px;}</style></defs><title>Asset 4</title><g id="Layer_2" data-name="Layer 2"><g id="Layer_1-2" data-name="Layer 1"><path d="M107.91,247.75a16.69,16.69,0,0,1,2.41-2.06,16.45,16.45,0,0,1,2.79-1.57,16,16,0,0,1,3.09-1,15.76,15.76,0,0,1,3.33-.35,16.82,16.82,0,0,1,5.42.87,15.19,15.19,0,0,1,4.57,2.48A15.53,15.53,0,0,1,133,250a17.75,17.75,0,0,1,2.18,5.13h-4.8a12.21,12.21,0,0,0-1.75-3.31,10.41,10.41,0,0,0-2.49-2.37,10.75,10.75,0,0,0-3.08-1.43,12.84,12.84,0,0,0-3.53-.48,11.06,11.06,0,0,0-2.35.25,11.22,11.22,0,0,0-2.19.72,11.62,11.62,0,0,0-2,1.13,12,12,0,0,0-1.73,1.49,12.65,12.65,0,0,0-1.43,1.8,12.23,12.23,0,0,0-1.78,4.35,12.79,12.79,0,0,0-.24,2.5,12.3,12.3,0,0,0,.24,2.44,12.13,12.13,0,0,0,.69,2.26,12.35,12.35,0,0,0,1.09,2,12.73,12.73,0,0,0,1.43,1.79,12,12,0,0,0,1.73,1.49,11.62,11.62,0,0,0,2,1.13,11.22,11.22,0,0,0,2.19.72,11.06,11.06,0,0,0,2.35.25,12.34,12.34,0,0,0,3.64-.54,11.13,11.13,0,0,0,5.74-4.08,12.51,12.51,0,0,0,1.75-3.4h4.75a18.38,18.38,0,0,1-2.19,5.22,16.34,16.34,0,0,1-3.54,4,15.53,15.53,0,0,1-4.65,2.62,16.44,16.44,0,0,1-5.51.93,16,16,0,0,1-9.21-2.92,16.22,16.22,0,0,1-2.41-2.08,18,18,0,0,1-3.48-5.38,17.32,17.32,0,0,1-1-3.17,16.94,16.94,0,0,1-.34-3.4,17.39,17.39,0,0,1,1.32-6.66,17.77,17.77,0,0,1,1.52-2.88A18,18,0,0,1,107.91,247.75Z"/><path d="M141.94,247.55a17.14,17.14,0,0,1,5.44-3.71,16.88,16.88,0,0,1,13.35,0,17.29,17.29,0,0,1,2.91,1.6,17.76,17.76,0,0,1,2.55,2.11,18.09,18.09,0,0,1,2.06,2.55,17.69,17.69,0,0,1,1.57,2.91,17.08,17.08,0,0,1,0,13.37,17.69,17.69,0,0,1-1.57,2.91,18.09,18.09,0,0,1-2.06,2.55,17.27,17.27,0,0,1-2.55,2.13,16.84,16.84,0,0,1-6.14,2.61,17.24,17.24,0,0,1-6.91,0,16.81,16.81,0,0,1-6.13-2.61,16.65,16.65,0,0,1-2.52-2.13,18.09,18.09,0,0,1-2.06-2.55,17.69,17.69,0,0,1-1.57-2.91,17.08,17.08,0,0,1,0-13.37,17.69,17.69,0,0,1,1.57-2.91A18.09,18.09,0,0,1,141.94,247.55ZM162.72,251a12.58,12.58,0,0,0-3.95-2.67,12.25,12.25,0,0,0-2.3-.73,11.85,11.85,0,0,0-7.15.73,12.23,12.23,0,0,0-3.88,2.67,12.32,12.32,0,0,0-2.63,3.89,12.27,12.27,0,0,0,1.13,11.67,13,13,0,0,0,3.3,3.33,12.17,12.17,0,0,0,2.07,1.15,12,12,0,0,0,2.28.73,11.84,11.84,0,0,0,4.87,0,12.25,12.25,0,0,0,2.3-.73,12.13,12.13,0,0,0,5.41-4.47,12.36,12.36,0,0,0,1.12-2.07,12.21,12.21,0,0,0,.71-2.31,12.62,12.62,0,0,0,0-5,12.22,12.22,0,0,0-.71-2.31,12.35,12.35,0,0,0-1.12-2.07A12.65,12.65,0,0,0,162.72,251Z"/><path d="M178.85,276.5H174V242.95h20v4.85H178.85v9.46h13.44v4.9H178.85V276.5Z"/><path d="M200.4,276.5h-4.85V242.95h20v4.85H200.4v9.46h13.44v4.9H200.4V276.5Z"/><path d="M222,271.65h15.6v4.85H217.1V242.95h20.45v4.85H222v9.46h15.22v4.9H222v9.5Z"/><path d="M244.46,271.65h15.6v4.85h-20.5V242.95H260v4.85H244.46v9.46h15.22v4.9H244.46v9.5Z"/><path d="M296.74,251a6.69,6.69,0,0,0-1.09-1.73,5.16,5.16,0,0,0-1.35-1.09,5.57,5.57,0,0,0-1.53-.57,7.71,7.71,0,0,0-1.63-.16,8.34,8.34,0,0,0-2.28.31,6.55,6.55,0,0,0-2,.92,4.67,4.67,0,0,0-1.4,1.5,4.26,4.26,0,0,0-.55,2.07,5.82,5.82,0,0,0,.26,1.76,4.14,4.14,0,0,0,.85,1.52,4,4,0,0,0,1.57,1.07,6.58,6.58,0,0,0,2.42.4h15.6v4.8h-3.36v5.62a9.21,9.21,0,0,1-.75,3.74,8.25,8.25,0,0,1-2.2,2.95,10.45,10.45,0,0,1-3.55,2,16.37,16.37,0,0,1-4.83.77,15.9,15.9,0,0,1-5.68-.86,10.63,10.63,0,0,1-3.94-2.44,9.15,9.15,0,0,1-2.2-3.5,9.57,9.57,0,0,1-.47-4,9.14,9.14,0,0,1,.47-1.87,8.81,8.81,0,0,1,1-1.88,8,8,0,0,1,3.66-3,6.86,6.86,0,0,1-2.84-3.16,8.32,8.32,0,0,1-.58-1.89,10.43,10.43,0,0,1-.17-1.91,9.22,9.22,0,0,1,.95-4.18,8.93,8.93,0,0,1,2.5-3,11.19,11.19,0,0,1,3.52-1.83,13.34,13.34,0,0,1,4-.62,12.66,12.66,0,0,1,3,.35,9.35,9.35,0,0,1,2.76,1.16,9.17,9.17,0,0,1,2.36,2.16,12.77,12.77,0,0,1,1.82,3.34L300,250l-1.09.34-1.09.34Zm-13.3,15.46a4.4,4.4,0,0,0,.34,2,5,5,0,0,0,1.33,1.82,6.77,6.77,0,0,0,2.36,1.32,10.76,10.76,0,0,0,3.42.51,10,10,0,0,0,2.75-.35,6.24,6.24,0,0,0,2.07-1,4.3,4.3,0,0,0,1.76-3.55v-5.42H290a8.79,8.79,0,0,0-2.89.34,5.48,5.48,0,0,0-2,1.07,4.75,4.75,0,0,0-1.18,1.53A5.15,5.15,0,0,0,283.44,266.42Z"/><path d="M343.15,251.59a4.64,4.64,0,0,0-.94-2,5.56,5.56,0,0,0-1.64-1.34,7.82,7.82,0,0,0-2.06-.76,9.54,9.54,0,0,0-2.21-.22,10.73,10.73,0,0,0-1.72.17,9.44,9.44,0,0,0-1.67.47,7.24,7.24,0,0,0-1.5.78,5.38,5.38,0,0,0-1.2,1.12,3.73,3.73,0,0,0-.42.69,4.08,4.08,0,0,0-.27.76,4.72,4.72,0,0,0-.13.82,5.57,5.57,0,0,0,0,.85,3.5,3.5,0,0,0,.79,2.07,4.43,4.43,0,0,0,1.77,1.21,11.23,11.23,0,0,0,2.4.63c.87.14,1.78.23,2.68.32a35.68,35.68,0,0,1,3.58.6,16.63,16.63,0,0,1,3.47,1.17,9.09,9.09,0,0,1,2.85,2.07,7.46,7.46,0,0,1,1.71,3.3c0,.18.07.37.1.55s.05.38.08.57,0,.38,0,.56,0,.36,0,.53a8.85,8.85,0,0,1-1.1,4.33,10.09,10.09,0,0,1-2.87,3.21,13.51,13.51,0,0,1-4,2,15.25,15.25,0,0,1-4.5.69,14.57,14.57,0,0,1-4-.57,13.76,13.76,0,0,1-3.77-1.71,10.32,10.32,0,0,1-2.91-2.84,8.62,8.62,0,0,1-1.42-3.95v-.91l1.22,0,1.22,0,1.22,0,1.22,0v.53a4.08,4.08,0,0,0,.84,2.06,5.87,5.87,0,0,0,1.74,1.49,8.91,8.91,0,0,0,2.27.9,9.92,9.92,0,0,0,2.4.3,10.16,10.16,0,0,0,2.7-.37,8.71,8.71,0,0,0,2.42-1.07,5.75,5.75,0,0,0,1.75-1.72,4.28,4.28,0,0,0,.67-2.31q0-.13,0-.26t0-.28,0-.3q0-.15-.06-.31a2.85,2.85,0,0,0-.93-1.54,5.1,5.1,0,0,0-1.73-.94,13.4,13.4,0,0,0-2.25-.53c-.81-.13-1.65-.22-2.49-.3a34.82,34.82,0,0,1-4-.59,14.17,14.17,0,0,1-3.72-1.32,7.82,7.82,0,0,1-2.84-2.53,8.68,8.68,0,0,1-1.35-4.24h0a9.74,9.74,0,0,1,0-1.69,9.2,9.2,0,0,1,.3-1.65,8.88,8.88,0,0,1,1.52-3,9.94,9.94,0,0,1,2-1.93,12.2,12.2,0,0,1,2.48-1.4,14.31,14.31,0,0,1,2.79-.85,15.07,15.07,0,0,1,2.91-.29,14.38,14.38,0,0,1,3.85.52,11.72,11.72,0,0,1,3.48,1.6,9.47,9.47,0,0,1,2.67,2.75,9.93,9.93,0,0,1,1.42,4l-1.2,0-1.2,0-1.2,0Z"/><path d="M371.42,266.61h-12l-1,2.45-1.08,2.6c-.36.87-.71,1.73-1,2.55s-.63,1.59-.89,2.29h-5.23l3.37-8.51,3.37-8.51,3.37-8.51,3.37-8.51h3.55l3.37,8.51,3.37,8.51,3.37,8.51,3.37,8.51h-5.18l-1-2.47-1-2.47-1-2.47Zm-10.22-4.56h8.35l-1-3-1-3-1-3-1-3-1.06,3-1.06,3-1.06,3Z"/><path d="M382.17,276.5V242.85h3.74l4.09,5.92,4.09,5.92,4.09,5.92,4.09,5.92V242.9h4.8v33.6h-3.84l-4.06-5.87-4.06-5.87-4.06-5.87L387,253V276.5h-4.85Z"/><path d="M424,242.95a17.6,17.6,0,0,1,7.22,1.44,14.82,14.82,0,0,1,5.16,3.81,16.37,16.37,0,0,1,3.1,5.38,18.89,18.89,0,0,1,0,12.33,16.28,16.28,0,0,1-3.1,5.37,14.8,14.8,0,0,1-5.16,3.79A17.67,17.67,0,0,1,424,276.5h-12V242.95h12Zm0,28.71a12.46,12.46,0,0,0,5.11-1,10.54,10.54,0,0,0,3.66-2.7,11.62,11.62,0,0,0,2.2-3.81,13.36,13.36,0,0,0,0-8.75,11.71,11.71,0,0,0-2.2-3.83,10.56,10.56,0,0,0-3.66-2.71,12.39,12.39,0,0,0-5.11-1h-7.2v23.86H424Z"/><path d="M460.41,260.51c-.48,1.37-1,2.75-1.47,4.12l-1.5,4.11c-.5,1.36-1,2.71-1.47,4s-.93,2.63-1.37,3.91H451.2l-2.82-8.44-2.82-8.44-2.82-8.44-2.82-8.44h5l2,6.06,2,6.06,2,6.06,2,6.06,1.38-3.92,1.38-3.92,1.38-3.92,1.38-3.92h3.89l1.37,3.91,1.37,3.91,1.37,3.91,1.37,3.91c.66-2,1.34-4,2-6.09l2.06-6.15,2-6.08c.67-2,1.32-4,1.94-5.87H481l-2.82,8.44-2.82,8.44-2.82,8.44-2.82,8.44h-3.41l-1.48-4-1.48-4-1.48-4Z"/><path d="M499.24,247.75H493v23.91h6.24v4.85H481.91v-4.85h6.24V247.75h-6.24v-4.8h17.33v4.8Z"/><path d="M504.09,247.75a16.7,16.7,0,0,1,2.41-2.06,16.45,16.45,0,0,1,2.79-1.57,16,16,0,0,1,3.09-1,15.76,15.76,0,0,1,3.33-.35,16.82,16.82,0,0,1,5.42.87,15.19,15.19,0,0,1,4.57,2.48,15.53,15.53,0,0,1,3.49,3.9,17.75,17.75,0,0,1,2.18,5.13h-4.8a12.21,12.21,0,0,0-1.75-3.31,10.41,10.41,0,0,0-2.49-2.37,10.75,10.75,0,0,0-3.08-1.43,12.83,12.83,0,0,0-3.53-.48,11.07,11.07,0,0,0-2.35.25,11.22,11.22,0,0,0-2.19.72,11.61,11.61,0,0,0-2,1.13,12,12,0,0,0-1.73,1.49A12.65,12.65,0,0,0,506,253a12.23,12.23,0,0,0-1.78,4.35,12.79,12.79,0,0,0-.24,2.5,12.3,12.3,0,0,0,.24,2.44,12.13,12.13,0,0,0,.69,2.26,12.35,12.35,0,0,0,1.09,2,12.73,12.73,0,0,0,1.43,1.79,12,12,0,0,0,1.73,1.49,11.61,11.61,0,0,0,2,1.13,11.22,11.22,0,0,0,2.19.72,11.07,11.07,0,0,0,2.35.25,12.34,12.34,0,0,0,3.64-.54,11.13,11.13,0,0,0,5.74-4.08,12.51,12.51,0,0,0,1.75-3.4h4.75a18.38,18.38,0,0,1-2.19,5.22,16.34,16.34,0,0,1-3.54,4,15.54,15.54,0,0,1-4.65,2.62,16.44,16.44,0,0,1-5.51.93,16,16,0,0,1-9.21-2.92,16.23,16.23,0,0,1-2.41-2.08,18,18,0,0,1-3.48-5.38,17.32,17.32,0,0,1-1-3.17,16.94,16.94,0,0,1-.34-3.4,17.39,17.39,0,0,1,1.32-6.66,17.77,17.77,0,0,1,1.52-2.88A18,18,0,0,1,504.09,247.75Z"/><path d="M538.79,257.11H553V242.95h4.9V276.5H553V261.91H538.79V276.5h-4.85V242.95h4.85v14.16Z"/><text class="cls-1" transform="translate(134.63 359.6) scale(1.19 1)">W</text><text class="cls-2" transform="translate(21.6 204.57)">DeC<tspan class="cls-3" x="257.4" y="0">l</tspan><tspan x="300.6" y="0">ieu</tspan></text><text></text><path d="M608.67,164.67a123.24,123.24,0,0,1-22.95-.51c-3.82-.41-7.63-1-11.41-1.72s-7.55-1.61-11.25-2.72a113.9,113.9,0,0,1-11-3.8,109.43,109.43,0,0,1-10.54-5.06,80.31,80.31,0,0,1-9.82-6.46l-2.3-1.84a19.89,19.89,0,0,1-2.33-2.23,10.73,10.73,0,0,1-1.13-1.51,5.68,5.68,0,0,1-.87-2.4,4.35,4.35,0,0,1,.19-1.79,5.45,5.45,0,0,1,.4-.84,6.08,6.08,0,0,1,.52-.67,5.66,5.66,0,0,1,2.08-1.35,12.39,12.39,0,0,1,3.4-.76c1.06-.11,2.07-.15,3.07-.16,2,0,3.95.08,5.88.25,3.86.33,7.66.83,11.44,1.4s7.54,1.16,11.3,1.8l11.27,1.83c15,2.36,30.08,4.45,45.2,5.69a186.06,186.06,0,0,0,22.46.78,30.06,30.06,0,0,0,5.15-.67,5,5,0,0,0,1.67-.67c.11-.09,0-.07-.07.12s0,.33-.08.23a5.18,5.18,0,0,0-1-1.37,17.76,17.76,0,0,0-1.8-1.7,48.38,48.38,0,0,0-4.33-3.2,85.16,85.16,0,0,0-19.8-9.46,156.75,156.75,0,0,0-21.58-5.53c-7.33-1.46-14.78-2.41-22.27-3.26s-15-1.38-22.7-2.35c-1-.13-1.94-.27-2.93-.45a18.86,18.86,0,0,1-3.14-.8,7,7,0,0,1-1-.43,3.86,3.86,0,0,1-1.23-1,2.6,2.6,0,0,1-.33-.53,2.54,2.54,0,0,1-.23-.68,2.78,2.78,0,0,1,.07-1.38,3.52,3.52,0,0,1,.86-1.42,7.58,7.58,0,0,1,1.52-1.18c.48-.3.94-.54,1.4-.77a88.09,88.09,0,0,1,10.88-4.17c3.63-1.21,7.28-2.29,10.94-3.35s7.32-2.11,11-3.08l.19.57L573,100.35l-10.49,4.4c-1.74.75-3.47,1.5-5.16,2.3s-3.39,1.6-4.9,2.49c-.38.22-.74.45-1.05.68a3.53,3.53,0,0,0-.69.6c-.06.06,0,.07.11-.22a1.47,1.47,0,0,0,0-.68,2,2,0,0,0-.11-.35,2.58,2.58,0,0,0-.14-.23c-.18-.22-.19-.18-.1-.16l.36.12a18.2,18.2,0,0,0,2.41.43c.89.11,1.8.19,2.72.26,3.7.27,7.51.39,11.31.58s7.62.41,11.44.68q11.46.8,22.9,2.76c3.8.67,7.58,1.52,11.34,2.48a114,114,0,0,1,11.16,3.43,87.69,87.69,0,0,1,20.94,10.71,53.67,53.67,0,0,1,4.72,3.72,23,23,0,0,1,2.27,2.29,9.37,9.37,0,0,1,2,3.45,4.73,4.73,0,0,1-1.9,5.33,9.82,9.82,0,0,1-3.59,1.43,30.43,30.43,0,0,1-6.16.52,101.31,101.31,0,0,1-11.61-.78c-3.81-.44-7.6-1-11.37-1.55-15.07-2.36-30-5.07-45.09-7-7.53-1-15.09-1.77-22.64-2.26-3.77-.24-7.55-.43-11.28-.44-1.86,0-3.72,0-5.51.15-.9.06-1.78.16-2.61.3a9.51,9.51,0,0,0-2.12.57c-.24.1-.4.24-.3.17a1.06,1.06,0,0,0,.25-.69c0-.15,0,0,.17.23a5.94,5.94,0,0,0,.61.74,19.54,19.54,0,0,0,1.85,1.64l2.16,1.7a104.31,104.31,0,0,0,9.19,6.09,104.28,104.28,0,0,0,9.91,5c3.38,1.52,6.87,2.85,10.4,4.05s7.11,2.29,10.75,3.22,7.3,1.76,11,2.49a197.73,197.73,0,0,0,22.46,3.07Z"/><path class="cls-4" d="M591.72,76.62s-9.37-13.9,4.21-28.74C595.94,47.88,611.58,70.55,591.72,76.62Z"/><path class="cls-5" d="M583.77,87.84s-15.31-14-3.24-35.82C580.53,52,605.92,74.79,583.77,87.84Z"/><path d="M608.61,76.77c-5.3.06-10.6.45-15.85,1s-10.48,1.39-15.64,2.42a150.2,150.2,0,0,0-15.25,3.92,118.59,118.59,0,0,0-14.55,5.71A83.31,83.31,0,0,0,534,97.7l-1.55,1.15c-.52.38-1,.77-1.48,1.14a12.79,12.79,0,0,0-1.2,1.13,3.39,3.39,0,0,0-.62.85c0,.07,0,0,0-.24a.91.91,0,0,0-.21-.56c-.11-.12.17.12.59.25a15,15,0,0,0,3.28.62,71.27,71.27,0,0,0,7.64.21c2.6,0,5.22-.14,7.85-.29,5.25-.33,10.54-.67,15.82-1.11,21.16-1.64,42.39-3.58,63.7-4.61a113.21,113.21,0,0,1,16.09.19,22.43,22.43,0,0,1,4.08.78,8.24,8.24,0,0,1,2.05.92,3.33,3.33,0,0,1,1.57,2.17,3.81,3.81,0,0,1-.54,2.54,10.61,10.61,0,0,1-1.33,1.77,25.34,25.34,0,0,1-3.09,2.77c-8.67,6.53-18.72,10.92-29.05,13.93a175.1,175.1,0,0,1-31.67,6c-5.34.57-10.69.9-16,1.18s-10.68.41-15.86.78c-1.28.1-2.56.22-3.72.4a9.36,9.36,0,0,0-1.45.33c-.14,0-.24.14,0,0a2,2,0,0,0,.6-.88,2.18,2.18,0,0,0,0-1.42c-.2-.51-.24-.4-.14-.34a5.12,5.12,0,0,0,.47.36c.4.28.91.59,1.43.88,1.05.59,2.2,1.15,3.37,1.69,4.69,2.15,9.64,4.09,14.56,6,9.87,3.8,19.84,7.56,29.76,11.43s19.8,7.86,29.6,12.11c4.9,2.12,9.79,4.29,14.64,6.62,2.43,1.18,4.83,2.41,7.23,3.79a35.71,35.71,0,0,1,3.61,2.34,10.06,10.06,0,0,1,1.93,1.83,4.24,4.24,0,0,1,.27.39,3.69,3.69,0,0,1,.27.5,3.34,3.34,0,0,1,.31,1.64,3.14,3.14,0,0,1-.27,1.07,3.27,3.27,0,0,1-.55.81,3.72,3.72,0,0,1-1.08.8,6,6,0,0,1-1.52.5,11.36,11.36,0,0,1-1.23.18c-.77.07-1.5.09-2.21.08-1.42,0-2.79-.1-4.15-.21-2.72-.24-5.38-.58-8-1-5.31-.75-10.56-1.69-15.8-2.67s-10.46-2.06-15.67-3.17-10.41-2.24-15.6-3.45l.11-.59,15.82,2.14,15.81,2c5.27.65,10.54,1.27,15.79,1.76,2.63.24,5.25.44,7.84.53,1.29,0,2.58.06,3.82,0,.62,0,1.22-.06,1.77-.14a6.67,6.67,0,0,0,.74-.14,1.32,1.32,0,0,0,.37-.12s-.09,0-.28.22a1.75,1.75,0,0,0-.42,1,1.54,1.54,0,0,0,.1.68l0,.07,0,0a6.47,6.47,0,0,0-1-.84,31.33,31.33,0,0,0-3.16-1.87c-2.26-1.19-4.64-2.28-7-3.35-4.8-2.14-9.7-4.14-14.61-6.1-9.85-3.9-19.74-7.76-29.68-11.51l-14.87-5.73c-5-1.9-9.95-3.82-14.88-5.85s-9.88-4.07-14.81-6.45c-1.23-.6-2.47-1.23-3.73-2a22.28,22.28,0,0,1-1.94-1.26,10.39,10.39,0,0,1-1.07-.9,5.05,5.05,0,0,1-1.3-1.94,3.81,3.81,0,0,1-.2-1.09,3.47,3.47,0,0,1,.2-1.3,3.76,3.76,0,0,1,1.19-1.66,5.64,5.64,0,0,1,1.79-.94,14.67,14.67,0,0,1,2.44-.54c1.47-.21,2.85-.3,4.22-.38,5.44-.27,10.72-.32,16-.46s10.57-.35,15.83-.67a183.84,183.84,0,0,0,31.22-4.32,102.47,102.47,0,0,0,15-4.83,75.55,75.55,0,0,0,7.1-3.37,62.69,62.69,0,0,0,6.62-4.18,23.47,23.47,0,0,0,2.91-2.47,7.84,7.84,0,0,0,1.09-1.39,2,2,0,0,0,.34-1.26c0-.64-1.17-1.3-2.32-1.65a20.7,20.7,0,0,0-3.73-.74,61.16,61.16,0,0,0-7.85-.34c-2.64,0-5.28.13-7.93.28-5.29.33-10.57.85-15.85,1.44s-10.54,1.32-15.81,2c-10.54,1.41-21.07,3-31.67,4.18-5.3.57-10.62,1.16-16,1.48a99.44,99.44,0,0,1-16.39,0,19.7,19.7,0,0,1-4.52-1,6.59,6.59,0,0,1-2.77-1.81,4.38,4.38,0,0,1-1-2.37,4.74,4.74,0,0,1,.38-2.18,8.13,8.13,0,0,1,1.65-2.4A17.83,17.83,0,0,1,527.69,96c.58-.48,1.14-.87,1.69-1.27l1.67-1.21a85.94,85.94,0,0,1,14.34-7.91,106.43,106.43,0,0,1,15.35-5.35,126,126,0,0,1,15.84-3.2,146.61,146.61,0,0,1,16-1.37,124.74,124.74,0,0,1,16,.46Z"/><circle class="cls-6" cx="588.68" cy="133.75" r="72.33"/><ellipse class="cls-7" cx="647.71" cy="167.88" rx="11.47" ry="10.13"/><path d="M649.51,159.59c0,25.67-27.53,46.49-61.49,46.49s-61.49-20.81-61.49-46.49S649.51,133.91,649.51,159.59Z"/><ellipse class="cls-8" cx="588.02" cy="153.29" rx="59.37" ry="12.96"/><ellipse class="cls-9" cx="588.33" cy="157.61" rx="52.46" ry="10.04"/><path class="cls-4" d="M585.24,137.12s21.42-31.56,64.27-15.41C649.51,121.71,614.86,173.93,585.24,137.12Z"/><path class="cls-4" d="M581.13,121s9.55-36.93,55.33-36.15C636.47,84.84,621.41,145.68,581.13,121Z"/><path class="cls-4" d="M593.68,123s-33.34,6.6-50.4-30.46C543.28,92.53,597.94,81.11,593.68,123Z"/><path class="cls-4" d="M587.73,112.27s-25.67-9.66-21.6-42.34C566.13,69.93,608.48,85.37,587.73,112.27Z"/><path class="cls-4" d="M589.18,107.33s25.67-9.66,21.6-42.34C610.78,65,568.44,80.43,589.18,107.33Z"/><path class="cls-4" d="M595.93,136.86s-18.58-35.81-65.6-24.19C530.33,112.67,560.23,171.84,595.93,136.86Z"/><path class="cls-4" d="M603.15,157.39c-7.07-.84-11.78-14-11.78-14v-48h-8.48s1.41,40.51,0,48-10.37,14-10.37,14,1.41,6.28,15.31,6.73S603.15,157.39,603.15,157.39Z"/><ellipse class="cls-9" cx="598.6" cy="125.02" rx="10.01" ry="8.41" transform="translate(71.26 434.64) rotate(-42.22)"/><path d="M591.15,131.78a8.19,8.19,0,0,1-1.82-6.82,11.48,11.48,0,0,1,10.09-9.39,8.27,8.27,0,0,1,6.89,2.45,8.36,8.36,0,0,1,1.94,7.12,11.35,11.35,0,0,1-3.67,6.47,11.12,11.12,0,0,1-6.81,2.79A8.32,8.32,0,0,1,591.15,131.78Zm.07-.07a7.2,7.2,0,0,0,3,1.88,8.36,8.36,0,0,0,3.5.29,11.29,11.29,0,0,0,6.18-3,11,11,0,0,0,3.36-5.9,7.46,7.46,0,0,0-1.56-6.41,7.54,7.54,0,0,0-6.24-2.34,10.9,10.9,0,0,0-6.36,2.76,11,11,0,0,0-3.58,6,8.51,8.51,0,0,0,0,3.56A7.24,7.24,0,0,0,591.22,131.71Z"/><path d="M598,126.26c-.55.57-1.08,1.17-1.62,1.82s-1.12,1.33-1.72,2h0l0,0-2.86,2.38-.51-.61a19.54,19.54,0,0,1,1.66-1.64c.59-.53,1.22-1,1.84-1.48l1.75-1.27C597.07,127,597.57,126.65,598,126.26Zm-.07.07c-.64.59-1.21,1.16-1.74,1.73s-1,1.13-1.46,1.65a19.09,19.09,0,0,1-1.38,1.44,15,15,0,0,1-1.55,1.28l-.51-.61,3-2.18,0,0c.57-.55,1.16-1.05,1.78-1.59S597.32,126.95,597.94,126.33Z"/><ellipse class="cls-9" cx="591.9" cy="118.46" rx="11.14" ry="9.36" transform="translate(46.66 377.48) rotate(-36.73)"/><path d="M600.83,111.8a12.73,12.73,0,0,1,1.89,3.64,8.79,8.79,0,0,1,.3,4.32,13.71,13.71,0,0,1-13,9.73,9.36,9.36,0,0,1-9.19-12.31,13.69,13.69,0,0,1,13-9.73,9,9,0,0,1,4,1.52A12.49,12.49,0,0,1,600.83,111.8Zm0,0a5.89,5.89,0,0,0-3.27-2.16,10.76,10.76,0,0,0-3.77-.2,11.69,11.69,0,0,0-11.08,8.27,7.37,7.37,0,0,0,7.29,9.77,11.67,11.67,0,0,0,11.07-8.27,11.18,11.18,0,0,0,.88-3.66A5.83,5.83,0,0,0,600.83,111.8Z"/><path d="M592.73,117.11a2.08,2.08,0,0,0,.48-.68c.08-.16.16-.34.24-.54l.13-.32a1.8,1.8,0,0,1,.28-.34,17.83,17.83,0,0,1,2.48-2.45l.05,0,.06,0,3.5-2.21,1.13,1.65a43.41,43.41,0,0,1-4.6,3.08c-.81.46-1.6.88-2.36,1.29A4.46,4.46,0,0,0,592.73,117.11Zm0,0a16.76,16.76,0,0,0,2.49-2.28l1.52-1.6a23.34,23.34,0,0,1,3.15-2.7l1.13,1.65-3.5,2.21.11-.08a6,6,0,0,1-1.77,1.12,1.3,1.3,0,0,1-.25.1l-.4.12a6.22,6.22,0,0,0-.82.35A9.21,9.21,0,0,0,592.73,117.11Z"/><ellipse class="cls-10" cx="585.24" cy="106.4" rx="4.87" ry="5.79" transform="translate(14.46 273.83) rotate(-26.65)"/><path class="cls-11" d="M584.62,105.85l-1.44-2.5-.81-2Z"/><ellipse class="cls-10" cx="593.73" cy="102.14" rx="5.79" ry="4.87" transform="translate(176.4 536.63) rotate(-55.92)"/><path class="cls-11" d="M593.91,101.33l1.48-2.48,1.34-1.68Z"/><ellipse class="cls-9" cx="591.41" cy="91.33" rx="6.04" ry="7.19" transform="translate(-4.99 42.25) rotate(-4.07)"/><path d="M590.9,84.15a11.5,11.5,0,0,1,2.69.12,5.54,5.54,0,0,1,2.66,1.22,9.14,9.14,0,0,1,2.18,5.33A9,9,0,0,1,597,96.41a6.4,6.4,0,0,1-10.45.74,9.19,9.19,0,0,1-.78-10.91,5.67,5.67,0,0,1,2.46-1.58A11.1,11.1,0,0,1,590.9,84.15Zm0,0a3.3,3.3,0,0,0-2.24,1.13,7.36,7.36,0,0,0-1.19,2.06,7.2,7.2,0,0,0,.6,8.47,4.41,4.41,0,0,0,7.29-.52A7,7,0,0,0,596.44,91a6.93,6.93,0,0,0-1.69-4.13A7.75,7.75,0,0,0,593.27,85,3.25,3.25,0,0,0,590.9,84.15Z"/><path d="M591,90.41c0-.07-.09-.15-.25-.28l-.29-.25-.19-.16a.87.87,0,0,1-.12-.3,9.29,9.29,0,0,1-.6-2.43v-.14l0-2.67,2-.06a21,21,0,0,1,0,3.83c-.07.64-.16,1.26-.25,1.83A1.44,1.44,0,0,0,591,90.41Zm0,0a9.21,9.21,0,0,0-.52-2.47L590,86.65a8,8,0,0,1-.45-2.4l2-.06,0,2.67v-.14a1.72,1.72,0,0,1-.14,1.12.89.89,0,0,1-.06.14,3,3,0,0,0-.13.28,3.28,3.28,0,0,0-.18.64A5.17,5.17,0,0,0,591,90.41Z"/><ellipse class="cls-9" cx="593.29" cy="138.12" rx="8.32" ry="9.9" transform="translate(357 699.57) rotate(-80.28)"/><path d="M603,139.79a12.11,12.11,0,0,1-1.15,3.47,7.75,7.75,0,0,1-2.58,2.91,12.3,12.3,0,0,1-14.39-2.47,8.43,8.43,0,0,1,2.33-13.63,12.28,12.28,0,0,1,14.39,2.46,7.93,7.93,0,0,1,1.45,3.6A11.84,11.84,0,0,1,603,139.79Zm0,0a5.06,5.06,0,0,0-.65-3.42,9.7,9.7,0,0,0-2.22-2.48,10.28,10.28,0,0,0-12-2.05,6.44,6.44,0,0,0-1.8,10.51,12,12,0,0,0,14.89.44A5,5,0,0,0,603,139.79Z"/><path d="M594.67,137.82a1.49,1.49,0,0,0,.67-.14l.48-.21.29-.13a1.49,1.49,0,0,1,.4,0,14.88,14.88,0,0,1,3.18.07h.07l.06,0,3.57.9-.41,2a35.49,35.49,0,0,1-4.87-1.12c-.8-.25-1.57-.53-2.29-.77A3.23,3.23,0,0,0,594.67,137.82Zm0,0a14.14,14.14,0,0,0,3.1.19l1.94,0a17.66,17.66,0,0,1,3.6.33l-.41,2-3.57-.9.13,0a4.35,4.35,0,0,1-1.73-.47,1.1,1.1,0,0,1-.21-.11l-.33-.2a5.16,5.16,0,0,0-.75-.34A7.82,7.82,0,0,0,594.67,137.82Z"/><ellipse class="cls-9" cx="579.85" cy="130.46" rx="10.01" ry="8.41" transform="translate(62.75 423.46) rotate(-42.22)"/><path d="M572.37,137.25a9.35,9.35,0,0,1-2.3-6.95,9.82,9.82,0,0,1,3.58-6.69,12.18,12.18,0,0,1,7-2.61,9.24,9.24,0,0,1,7,2.36,7.71,7.71,0,0,1,2,3.35,9,9,0,0,1,.23,4,11.57,11.57,0,0,1-3.72,6.81,10.52,10.52,0,0,1-7.16,2.76A9.29,9.29,0,0,1,572.37,137.25Zm.15-.13a6.14,6.14,0,0,0,3,1.78,7.8,7.8,0,0,0,3.42,0,12.49,12.49,0,0,0,5.83-3,10.9,10.9,0,0,0,3.31-5.56,7.68,7.68,0,0,0-1.23-6.23,6.39,6.39,0,0,0-2.71-2,7.31,7.31,0,0,0-3.43-.43,10.2,10.2,0,0,0-6,3.19,14,14,0,0,0-3.45,5.68,7.81,7.81,0,0,0-.29,3.42A6.08,6.08,0,0,0,572.51,137.12Z"/><path d="M579.3,131.67a14.63,14.63,0,0,0-1,1.85,7.48,7.48,0,0,1-.89,1.28,5.24,5.24,0,0,1-1.19,1l-.07.06a7,7,0,0,0-1.7.84,6.78,6.78,0,0,0-1.32,1.33l-.71-.84a10.62,10.62,0,0,1,1.59-1.92,12.43,12.43,0,0,1,2-1.66c.71-.44,1.39-.79,1.94-1.09A8.87,8.87,0,0,0,579.3,131.67Zm-.14.14a17.58,17.58,0,0,0-1.9,2.09c-.52.67-.91,1.3-1.28,1.83a5.55,5.55,0,0,1-1.19,1.26,7.41,7.41,0,0,1-1.62,1l-.71-.84a6.78,6.78,0,0,0,1.62-.94,7,7,0,0,0,1.24-1.44l-.07.06a2.45,2.45,0,0,1,.55-.81,3.94,3.94,0,0,1,.86-.5A8.34,8.34,0,0,0,579.16,131.81Z"/><ellipse class="cls-9" cx="578.24" cy="115.99" rx="9.25" ry="11.01" transform="translate(183.76 554.4) rotate(-59.36)"/><path d="M568.68,110.33a10.13,10.13,0,0,1,6.55-4.62,10.9,10.9,0,0,1,8.15,1.6,13.3,13.3,0,0,1,5,6.49,10,10,0,0,1-.22,8.08,8.44,8.44,0,0,1-2.85,3.19,9.86,9.86,0,0,1-4,1.5,12.69,12.69,0,0,1-8.3-1.7,11.62,11.62,0,0,1-5.22-6.57A10.07,10.07,0,0,1,568.68,110.33Zm.17.1a6.86,6.86,0,0,0-.91,3.75,8.67,8.67,0,0,0,1,3.64,13.57,13.57,0,0,0,5.09,5.22,12,12,0,0,0,7,1.67,8.47,8.47,0,0,0,6.19-3.38,7.12,7.12,0,0,0,1.23-3.52,8.17,8.17,0,0,0-.66-3.76,11.32,11.32,0,0,0-5.28-5.3,15,15,0,0,0-7.14-1.77,8.68,8.68,0,0,0-3.69.84A6.8,6.8,0,0,0,568.85,110.43Z"/><path d="M576.78,115.8a15.48,15.48,0,0,0-2.29-.52,8.75,8.75,0,0,1-1.6-.53,6.13,6.13,0,0,1-1.39-.91l-.08,0a8.35,8.35,0,0,0-1.46-1.49,8.16,8.16,0,0,0-1.82-1l.6-.92a12.58,12.58,0,0,1,2.49,1.07,14.57,14.57,0,0,1,2.37,1.56c.7.58,1.28,1.17,1.8,1.64A10.89,10.89,0,0,0,576.78,115.8Zm-.18-.1a20.58,20.58,0,0,0-2.74-1.32c-.86-.34-1.64-.56-2.31-.79a7,7,0,0,1-1.74-.88,9,9,0,0,1-1.62-1.37l.6-.92a8.17,8.17,0,0,0,1.53,1.38,8.35,8.35,0,0,0,1.89.87l-.08,0a3.06,3.06,0,0,1,1,.35,4.83,4.83,0,0,1,.84.73A9.94,9.94,0,0,0,576.6,115.71Z"/><ellipse class="cls-9" cx="579.54" cy="97.17" rx="8.41" ry="10.01" transform="translate(5.8 224.15) rotate(-22)"/><path d="M575.78,87.84a8.55,8.55,0,0,1,7.13.47,10.35,10.35,0,0,1,4.82,5.55,11.71,11.71,0,0,1,.24,7.3,8.51,8.51,0,0,1-4.57,5.54,8.07,8.07,0,0,1-7.3-.54,11.37,11.37,0,0,1-4.85-5.64,10.86,10.86,0,0,1-.3-7.39A8.55,8.55,0,0,1,575.78,87.84Zm0,.09a7.31,7.31,0,0,0-4.22,5.37,11.63,11.63,0,0,0,.65,6.81,11,11,0,0,0,4.33,5.23,7.76,7.76,0,0,0,6.62.85,7.34,7.34,0,0,0,4.47-5.12,10.66,10.66,0,0,0-.7-6.9,12.39,12.39,0,0,0-4.36-5.32,8.41,8.41,0,0,0-3.26-1.3A6.61,6.61,0,0,0,575.81,87.93Z"/><path d="M578.58,96.18a18.44,18.44,0,0,0-1.23-1.92,12,12,0,0,1-.71-1.2,8.12,8.12,0,0,1-.52-1.29l0,0a14.47,14.47,0,0,0-.38-1.83,13.44,13.44,0,0,0-.68-1.74l.52-.19a22.64,22.64,0,0,1,1.87,4.33C577.86,93.81,578.16,95.13,578.58,96.18Zm0-.09a39.39,39.39,0,0,0-2.1-4.18A16.32,16.32,0,0,1,575,88.19l.52-.19a13.43,13.43,0,0,0,.44,1.81,14.48,14.48,0,0,0,.74,1.72l0,0a5.47,5.47,0,0,1,.55,1,8.38,8.38,0,0,1,.35,1.05A15.86,15.86,0,0,0,578.54,96.09Z"/><ellipse class="cls-10" cx="597.97" cy="108.21" rx="4.87" ry="5.79" transform="translate(388.24 678.56) rotate(-80.07)"/><path class="cls-11" d="M598.78,108l2.87.33,2.09.54Z"/></g></g></svg>