<svg xmlns="http://www.w3.org/2000/svg" viewBox="0 0 105.54 115.02"><defs><style>.cls-1,.cls-2,.cls-5{stroke:#fff;}.cls-1,.cls-2,.cls-3,.cls-4,.cls-5,.cls-7,.cls-8{stroke-miterlimit:10;}.cls-1{stroke-width:2px;}.cls-3,.cls-8{fill:none;}.cls-3,.cls-4,.cls-7,.cls-8{stroke:#000;}.cls-3,.cls-5{stroke-width:3px;}.cls-4,.cls-6,.cls-7{fill:#fff;}.cls-4{stroke-width:6px;}</style></defs><title>Asset 5</title><g id="Layer_2" data-name="Layer 2"><g id="Layer_1-2" data-name="Layer 1"><path d="M66.81,84.32a81.27,81.27,0,0,1-16.31,0c-1.35-.15-2.72-.27-4.07-.45l-4.06-.65-4-.82c-1.34-.29-2.66-.69-4-1s-2.63-.82-4-1.24l-2-.65-1.93-.78c-2.59-1-5.07-2.3-7.56-3.56-1.2-.73-2.41-1.44-3.59-2.19l-.89-.56c-.29-.2-.57-.42-.85-.63l-1.68-1.28-1.67-1.3a14,14,0,0,1-1.72-1.66,8.4,8.4,0,0,1-.87-1.18,4.78,4.78,0,0,1-.71-2,3.84,3.84,0,0,1,.18-1.59A4.55,4.55,0,0,1,7.47,62a4.79,4.79,0,0,1,.46-.59,4.68,4.68,0,0,1,1.73-1.12,9.11,9.11,0,0,1,2.59-.57c.78-.07,1.52-.09,2.24-.09,1.45,0,2.84.09,4.22.24,2.75.28,5.44.68,8.12,1.13l16,2.77c10.62,1.72,21.29,3.12,32,3.82a134.17,134.17,0,0,0,15.82.32,20.93,20.93,0,0,0,3.5-.5A2.63,2.63,0,0,0,95,67a.83.83,0,0,0-.32.44,1.26,1.26,0,0,0-.08.63,8.26,8.26,0,0,0-.54-.67,12,12,0,0,0-1.2-1.12,33.72,33.72,0,0,0-3-2.18A60,60,0,0,0,76,57.63a120.66,120.66,0,0,0-15.13-3.85c-5.15-1-10.39-1.74-15.66-2.39s-10.58-1.07-16.05-1.82c-.69-.1-1.39-.21-2.1-.35a14,14,0,0,1-2.33-.62,5.72,5.72,0,0,1-.76-.35,3.38,3.38,0,0,1-1.07-.89,2.48,2.48,0,0,1-.3-.48,2.42,2.42,0,0,1-.21-.63A2.59,2.59,0,0,1,22.44,45a3.06,3.06,0,0,1,.75-1.24,5.77,5.77,0,0,1,1.2-.92c.36-.22.7-.4,1-.56a59.77,59.77,0,0,1,7.82-2.86c5.18-1.6,10.39-3,15.65-4.21l.19.57L34.34,42.26c-1.22.55-2.43,1.11-3.61,1.69s-2.36,1.16-3.39,1.79c-.25.16-.49.32-.69.47a1.43,1.43,0,0,0-.37.34s.1,0,.22-.39a1.66,1.66,0,0,0,0-.78,2,2,0,0,0-.13-.4,2.18,2.18,0,0,0-.16-.27c-.22-.27-.29-.27-.27-.28l.17,0a14.43,14.43,0,0,0,1.6.25c.61.07,1.25.12,1.9.16,2.6.16,5.29.21,8,.32s5.4.24,8.11.42A148.19,148.19,0,0,1,62,47.48a92.53,92.53,0,0,1,16.05,4.24,62.48,62.48,0,0,1,15,7.76,39,39,0,0,1,3.4,2.71,17.15,17.15,0,0,1,1.67,1.71,7.42,7.42,0,0,1,1.55,2.74A4.11,4.11,0,0,1,98,71.24a7.58,7.58,0,0,1-2.82,1.13,21.44,21.44,0,0,1-4.51.35,68.83,68.83,0,0,1-8.28-.66c-2.71-.35-5.39-.77-8.05-1.22C63.73,69,53.17,67,42.5,65.67q-4-.47-8-.85c-2.68-.22-5.35-.43-8-.54s-5.33-.21-8-.17c-1.31,0-2.6.05-3.84.17a17.63,17.63,0,0,0-1.78.24,6,6,0,0,0-1.31.38c-.12,0-.15.12,0,0A1.5,1.5,0,0,0,12,63.77c0-.29-.06-.24,0-.16a4,4,0,0,0,.36.41,12.24,12.24,0,0,0,1.24,1.06l1.55,1.13c2,1.6,4.22,2.9,6.37,4.3C23.83,71.74,26.08,73,28.49,74l1.77.82,1.82.72c1.22.46,2.41,1,3.67,1.38l3.74,1.24,3.79,1.12c2.55.66,5.12,1.31,7.72,1.87,5.19,1.1,10.48,2,15.81,2.55Z"/><path class="cls-1" d="M54.82,21.93s-6.63-9.83,3-20.33C57.8,1.6,68.87,17.64,54.82,21.93Z"/><path class="cls-2" d="M49.2,29.88S38.37,20,46.9,4.54C46.9,4.54,64.86,20.64,49.2,29.88Z"/><path d="M66.76,22.13A132.94,132.94,0,0,0,44.57,25c-1.82.34-3.6.88-5.4,1.3s-3.55,1-5.3,1.57a85.41,85.41,0,0,0-10.16,4.12l-2.44,1.21c-.81.41-1.56.92-2.34,1.37l-2.32,1.4L14.44,37.5l-1.1.78c-.37.26-.74.52-1,.77a8.22,8.22,0,0,0-.78.73,2,2,0,0,0-.29.37,1.13,1.13,0,0,0,.06-.53,1.42,1.42,0,0,0-.33-.82c-.24-.26-.14-.11.1-.05a10.15,10.15,0,0,0,2.14.39,51.87,51.87,0,0,0,5.31.13c1.82,0,3.67-.1,5.52-.2,3.7-.24,7.43-.44,11.17-.73l22.51-1.53L69,36.11c3.77-.24,7.54-.44,11.32-.58a82.47,82.47,0,0,1,11.43.15,16.09,16.09,0,0,1,2.94.56,6.08,6.08,0,0,1,1.52.68,2.63,2.63,0,0,1,1.23,1.71,3,3,0,0,1-.42,2,7.94,7.94,0,0,1-1,1.31,18.26,18.26,0,0,1-2.22,2A65.53,65.53,0,0,1,73.24,54a122.86,122.86,0,0,1-22.47,4.45c-3.79.44-7.58.69-11.36.91s-7.57.33-11.19.61c-.89.07-1.78.16-2.55.29a5.54,5.54,0,0,0-.88.21s-.05.07.29-.18a2.28,2.28,0,0,0,.69-1,2.41,2.41,0,0,0,0-1.58,1.63,1.63,0,0,0-.31-.59l.24.18c.24.17.58.37.93.56.72.39,1.52.78,2.33,1.15,3.28,1.5,6.78,2.86,10.26,4.2,7,2.66,14,5.33,21.05,8.07s14,5.6,20.93,8.65c3.47,1.53,6.92,3.08,10.36,4.76,1.72.85,3.42,1.74,5.14,2.75a26.23,26.23,0,0,1,2.62,1.73,8,8,0,0,1,1.5,1.45L101,91l.11.17c0,.07.09.18.13.27a4.62,4.62,0,0,1,.21.59,3.3,3.3,0,0,1,.06.91,2.49,2.49,0,0,1-.24.94,2.57,2.57,0,0,1-.49.76,4.17,4.17,0,0,1-.53.48,3.37,3.37,0,0,1-.41.24l-.4.19-.3.1a4.19,4.19,0,0,1-.57.14l-.5.09-.44,0a15.63,15.63,0,0,1-1.63.05c-1,0-2-.08-3-.18-1.94-.19-3.83-.45-5.72-.74-3.76-.57-7.48-1.28-11.18-2s-7.39-1.57-11.06-2.41-7.35-1.7-11-2.64l.11-.59L76.6,90c3.73.41,7.46.8,11.17,1.11,1.85.15,3.7.27,5.52.31.91,0,1.8,0,2.65,0a11.07,11.07,0,0,0,1.18-.1l.26,0,.19,0a.27.27,0,0,0,.11,0h0l-.09,0-.11.07a1.08,1.08,0,0,0-.27.24,2.38,2.38,0,0,0-.3.46,2.53,2.53,0,0,0-.16.61,1.62,1.62,0,0,0,0,.56.89.89,0,0,0,.08.27l.06.11v0l0,0s-.28-.25-.59-.44a22.06,22.06,0,0,0-2.17-1.25c-1.58-.81-3.26-1.56-4.95-2.3-3.38-1.49-6.85-2.88-10.33-4.24-7-2.71-14-5.43-21-8.06L47.43,73.21c-3.51-1.35-7-2.7-10.54-4.16s-7-2.9-10.52-4.61c-.88-.43-1.77-.89-2.69-1.43a16.78,16.78,0,0,1-1.45-.95,8.27,8.27,0,0,1-.85-.72,4.41,4.41,0,0,1-1.14-1.72,3.54,3.54,0,0,1-.19-1,3.33,3.33,0,0,1,.19-1.24,3.53,3.53,0,0,1,1.11-1.55A4.79,4.79,0,0,1,22.9,55a11.06,11.06,0,0,1,1.87-.41c1.09-.15,2.08-.21,3.06-.26,3.89-.17,7.61-.18,11.36-.26s7.46-.21,11.17-.4a131.62,131.62,0,0,0,22-2.82,68.32,68.32,0,0,0,10.56-3.28,46,46,0,0,0,9.67-5.25,16.4,16.4,0,0,0,2-1.7c.59-.57,1-1.37.95-1.64s-.65-.73-1.45-1a14.37,14.37,0,0,0-2.59-.52,68,68,0,0,0-11.12,0c-15,1-29.74,4-44.74,5.84-3.76.43-7.52.88-11.33,1.1a68.69,68.69,0,0,1-11.72,0,14.73,14.73,0,0,1-3.38-.74A5.41,5.41,0,0,1,7,42.19a3.86,3.86,0,0,1-.88-2.1,4.1,4.1,0,0,1,.32-1.9,6.44,6.44,0,0,1,1.31-1.93A13.3,13.3,0,0,1,9,35.08c.43-.36.84-.63,1.24-.9l1.22-.83,2.45-1.64c.85-.49,1.72-.94,2.57-1.42s1.7-1,2.59-1.37l2.67-1.19a73.41,73.41,0,0,1,11-3.76c1.87-.47,3.74-.89,5.62-1.27S42.13,22,44,21.81a94.67,94.67,0,0,1,22.76-.28Z"/><circle class="cls-3" cx="52.67" cy="62.35" r="51.17"/><ellipse class="cls-4" cx="94.43" cy="86.5" rx="8.11" ry="7.17"/><path d="M95.7,80.63c0,18.16-19.48,32.89-43.5,32.89S8.7,98.79,8.7,80.63,95.7,62.47,95.7,80.63Z"/><ellipse class="cls-5" cx="52.2" cy="76.18" rx="42" ry="9.17"/><ellipse class="cls-6" cx="52.42" cy="79.23" rx="37.11" ry="7.1"/><path class="cls-1" d="M50.23,64.74S65.39,42.41,95.7,53.83C95.7,53.83,71.18,90.78,50.23,64.74Z"/><path class="cls-1" d="M47.33,53.32S54.09,27.2,86.47,27.75C86.47,27.75,75.83,70.79,47.33,53.32Z"/><path class="cls-1" d="M56.2,54.74S32.62,59.41,20.55,33.19C20.55,33.19,59.22,25.11,56.2,54.74Z"/><path class="cls-1" d="M52,47.16s-18.16-6.84-15.28-30C36.72,17.21,66.67,28.12,52,47.16Z"/><path class="cls-1" d="M53,43.66s18.16-6.84,15.28-30C68.3,13.71,38.35,24.63,53,43.66Z"/><path class="cls-1" d="M57.79,64.55S44.65,39.21,11.39,47.44C11.39,47.44,32.54,89.3,57.79,64.55Z"/><path class="cls-1" d="M62.9,79.07c-5-.6-8.33-9.9-8.33-9.9v-34h-6s1,28.66,0,34-7.33,9.9-7.33,9.9,1,4.45,10.83,4.76S62.9,79.07,62.9,79.07Z"/><ellipse class="cls-6" cx="59.68" cy="56.17" rx="7.08" ry="5.95" transform="translate(-22.26 54.67) rotate(-42.22)"/><path d="M54.4,61a5.88,5.88,0,0,1-1.31-4.84,7.94,7.94,0,0,1,2.42-4.54,8.2,8.2,0,0,1,4.74-2.19,6,6,0,0,1,5,1.75,6,6,0,0,1,1.43,5.14A8.08,8.08,0,0,1,64,61,7.79,7.79,0,0,1,59.1,62.9,6,6,0,0,1,54.4,61Zm.07-.07a5.17,5.17,0,0,0,4.59,1.46,8.12,8.12,0,0,0,4.28-2.15,7.78,7.78,0,0,0,2.34-4.09,5.15,5.15,0,0,0-1-4.43A5.23,5.23,0,0,0,60.31,50,7.62,7.62,0,0,0,55.85,52a7.88,7.88,0,0,0-2.55,4.21,6,6,0,0,0,0,2.51A5.11,5.11,0,0,0,54.48,60.9Z"/><path d="M59.28,57a16.86,16.86,0,0,0-1.11,1.3c-.37.47-.78,1-1.21,1.45h0l0,0-2,1.71-.51-.61A12.14,12.14,0,0,1,57,58.65,23.35,23.35,0,0,0,59.28,57Zm-.07.07a19.75,19.75,0,0,0-2.26,2.53,7.71,7.71,0,0,1-2,1.86l-.51-.61,2.16-1.51,0,0c.4-.37.82-.7,1.27-1.07A17.51,17.51,0,0,0,59.21,57.12Z"/><ellipse class="cls-6" cx="54.95" cy="51.54" rx="7.88" ry="6.62" transform="translate(-19.91 43.09) rotate(-36.73)"/><path d="M61.26,46.82a11.52,11.52,0,0,1,1.45,2.56,6.1,6.1,0,0,1,.39,3.15,9.91,9.91,0,0,1-3.6,5.11,9.8,9.8,0,0,1-5.93,2,6.92,6.92,0,0,1-6.77-9.08,10,10,0,0,1,9.51-7.1,6.24,6.24,0,0,1,2.9,1.27A11.18,11.18,0,0,1,61.26,46.82Zm0,0a3.73,3.73,0,0,0-2.36-1.43,8,8,0,0,0-2.62.05,8,8,0,0,0-7.55,5.64,4.92,4.92,0,0,0,4.88,6.54A7.81,7.81,0,0,0,58.31,56,7.7,7.7,0,0,0,61.15,52a8.33,8.33,0,0,0,.8-2.49A3.69,3.69,0,0,0,61.26,46.82Z"/><path d="M55.53,50.58a.8.8,0,0,0,.17-.42c0-.11.05-.25.08-.41s0-.17.05-.26a1,1,0,0,1,.2-.28,10.55,10.55,0,0,1,1.86-1.93l.05,0,.06,0,2.48-1.56,1.13,1.65a24.3,24.3,0,0,1-3.47,2.24c-.62.32-1.23.6-1.79.87A1.76,1.76,0,0,0,55.53,50.58Zm0,0a10.35,10.35,0,0,0,1.92-1.86l1-1.18a10.1,10.1,0,0,1,2-1.86l1.13,1.65L59.07,48.9l.11-.08a2.27,2.27,0,0,1-1.15.6l-.17,0-.32.06a3.71,3.71,0,0,0-.67.22A5.79,5.79,0,0,0,55.53,50.58Z"/><ellipse class="cls-7" cx="50.23" cy="43" rx="3.44" ry="4.1" transform="translate(-13.95 27.1) rotate(-26.65)"/><path class="cls-8" d="M49.8,42.62l-1-1.77-.57-1.41Z"/><ellipse class="cls-7" cx="56.24" cy="39.99" rx="4.1" ry="3.44" transform="translate(-8.4 64.16) rotate(-55.92)"/><path class="cls-8" d="M56.37,39.42l1-1.76.95-1.19Z"/><ellipse class="cls-6" cx="54.6" cy="32.34" rx="4.27" ry="5.09" transform="translate(-2.16 3.96) rotate(-4.07)"/><path d="M54.24,27.26a13.7,13.7,0,0,1,2,0,3.85,3.85,0,0,1,2.06.77A6.79,6.79,0,0,1,59.86,32a6.68,6.68,0,0,1-1,4.13,4.82,4.82,0,0,1-7.86.56,6.8,6.8,0,0,1-.58-8.08,4,4,0,0,1,1.93-1A12.75,12.75,0,0,1,54.24,27.26Zm0,0a2,2,0,0,0-1.53.89A5.47,5.47,0,0,0,52,29.69a4.8,4.8,0,0,0,.4,5.64,2.83,2.83,0,0,0,4.7-.33,4.69,4.69,0,0,0,.72-2.88,4.58,4.58,0,0,0-1.13-2.75,5.91,5.91,0,0,0-.87-1.42A2,2,0,0,0,54.24,27.26Z"/><path d="M54.28,31.69s-.07,0-.22,0l-.28-.12a1.33,1.33,0,0,1-.18-.1c-.06,0-.08-.15-.11-.24A5.94,5.94,0,0,1,53,29.3v-2l2-.06a12.34,12.34,0,0,1-.08,2.92c-.08.49-.19,1-.28,1.37C54.39,31.64,54.3,31.72,54.28,31.69Zm0,0a6.12,6.12,0,0,0-.48-2c-.15-.32-.31-.59-.44-.83A3.16,3.16,0,0,1,53,27.36l2-.06V29a.58.58,0,0,1-.21.6.52.52,0,0,0-.07.08,1.79,1.79,0,0,0-.14.22,2.17,2.17,0,0,0-.19.51A3.5,3.5,0,0,0,54.28,31.69Z"/><ellipse class="cls-6" cx="55.93" cy="65.44" rx="5.88" ry="7.01" transform="translate(-18.02 109.52) rotate(-80.28)"/><path d="M62.83,66.62a11.52,11.52,0,0,1-.73,2.52,5.38,5.38,0,0,1-1.77,2.25,8.93,8.93,0,0,1-5.57.83,8.82,8.82,0,0,1-5-2.64,6.26,6.26,0,0,1,1.73-10.1,9,9,0,0,1,10.53,1.8A5.51,5.51,0,0,1,63,64,11.1,11.1,0,0,1,62.83,66.62Zm0,0a3.18,3.18,0,0,0-.56-2.38,7.2,7.2,0,0,0-1.68-1.59,7,7,0,0,0-8.12-1.39,4.26,4.26,0,0,0-1.19,7,6.83,6.83,0,0,0,3.83,2,6.72,6.72,0,0,0,4.28-.64,7.59,7.59,0,0,0,2.11-.94A3.14,3.14,0,0,0,62.83,66.62Z"/><path d="M56.9,65.23c.06,0,.15-.05.31-.18l.3-.23.2-.14a.83.83,0,0,1,.32,0,9,9,0,0,1,2.46,0h.07l.06,0,2.52.64-.41,2a20.12,20.12,0,0,1-3.64-.91c-.6-.22-1.15-.45-1.67-.67A1.37,1.37,0,0,0,56.9,65.23Zm0,0a8.9,8.9,0,0,0,2.48.08c.48,0,.92-.11,1.32-.16a7.48,7.48,0,0,1,2.36.12l-.41,2-2.52-.64.13,0a1.59,1.59,0,0,1-1-.4l-.12-.1-.24-.19a3.17,3.17,0,0,0-.57-.32A5,5,0,0,0,56.9,65.23Z"/><ellipse class="cls-6" cx="46.42" cy="60.02" rx="7.08" ry="5.95" transform="translate(-28.29 46.76) rotate(-42.22)"/><path d="M41.1,64.85a7.09,7.09,0,0,1-1.79-5,6.43,6.43,0,0,1,.74-2.72A7.16,7.16,0,0,1,41.87,55,9,9,0,0,1,47,53.24a7,7,0,0,1,5.08,1.65,5.58,5.58,0,0,1,1.55,2.42,6.54,6.54,0,0,1,.21,2.9,8.29,8.29,0,0,1-2.7,5,7.33,7.33,0,0,1-5.26,1.92A7,7,0,0,1,41.1,64.85Zm.15-.13a4,4,0,0,0,2.14,1.2,5.27,5.27,0,0,0,2.38-.09,9.45,9.45,0,0,0,3.93-2.18A7.69,7.69,0,0,0,52,59.89a5.36,5.36,0,0,0-.71-4.25A4.46,4.46,0,0,0,47,53.89,6.89,6.89,0,0,0,43,56.23a11.65,11.65,0,0,0-2.42,3.87,5.28,5.28,0,0,0-.32,2.37A4,4,0,0,0,41.25,64.72Z"/><path d="M46.05,60.86c-.1.12-.19.63-.48,1.33a4.38,4.38,0,0,1-.63,1,3,3,0,0,1-.94.71l-.07.06a3.71,3.71,0,0,0-1.27.51,3.39,3.39,0,0,0-.89,1l-.71-.84a5.88,5.88,0,0,1,1.12-1.49,7,7,0,0,1,1.56-1.24C44.87,61.34,45.76,61.1,46.05,60.86Zm-.14.14a10.14,10.14,0,0,0-2.24,3.06,2.24,2.24,0,0,1-.72.83,3.64,3.64,0,0,1-1.15.58l-.71-.84A3.39,3.39,0,0,0,42.29,64a3.71,3.71,0,0,0,.81-1.1L43,63a1.08,1.08,0,0,1,.3-.55,2,2,0,0,1,.6-.24A4.51,4.51,0,0,0,45.91,61Z"/><ellipse class="cls-6" cx="45.28" cy="49.79" rx="6.54" ry="7.79" transform="matrix(0.51, -0.86, 0.86, 0.51, -20.64, 63.38)"/><path d="M38.49,45.77a7.64,7.64,0,0,1,4.64-3.44,7.14,7.14,0,0,1,3.07-.08A8,8,0,0,1,49,43.44a9.7,9.7,0,0,1,3.52,4.76A7.52,7.52,0,0,1,52.46,54a6.09,6.09,0,0,1-2,2.38,7.07,7.07,0,0,1-3,1.13,9.1,9.1,0,0,1-6.07-1.21,8.1,8.1,0,0,1-3.71-4.84A7.57,7.57,0,0,1,38.49,45.77Zm.17.1a4.56,4.56,0,0,0-.59,2.64,5.88,5.88,0,0,0,.83,2.5,10.17,10.17,0,0,0,3.58,3.49,8.44,8.44,0,0,0,4.75,1.18,5.94,5.94,0,0,0,4.27-2.2,4.78,4.78,0,0,0,.91-2.41A5.42,5.42,0,0,0,52,48.45a7.72,7.72,0,0,0-3.77-3.57,12.17,12.17,0,0,0-4.91-1.28,5.89,5.89,0,0,0-2.6.48A4.46,4.46,0,0,0,38.66,45.87Z"/><path d="M44.27,49.67c-.2-.08-.76,0-1.57-.15a5.06,5.06,0,0,1-1.24-.35,3.52,3.52,0,0,1-1-.73l-.08,0a4.4,4.4,0,0,0-1-1.14,4.06,4.06,0,0,0-1.33-.63l.6-.92a6.89,6.89,0,0,1,1.89.71,8.14,8.14,0,0,1,1.77,1.2C43.29,48.57,43.87,49.41,44.27,49.67Zm-.17-.1a12.14,12.14,0,0,0-3.85-1.39,2.88,2.88,0,0,1-1.14-.52,4.41,4.41,0,0,1-1-1l.6-.92a4.06,4.06,0,0,0,1,1,4.4,4.4,0,0,0,1.4.52l-.08,0a1.35,1.35,0,0,1,.69.16,2.36,2.36,0,0,1,.48.54A5.32,5.32,0,0,0,44.1,49.57Z"/><ellipse class="cls-6" cx="46.2" cy="36.47" rx="5.95" ry="7.08" transform="translate(-10.3 19.96) rotate(-22)"/><path d="M43.53,29.86a6.25,6.25,0,0,1,5.1.27,7.13,7.13,0,0,1,3.47,4,8.44,8.44,0,0,1,.11,5.22,6.21,6.21,0,0,1-3.25,4A5.76,5.76,0,0,1,43.7,43a8.1,8.1,0,0,1-3.5-4.05A7.55,7.55,0,0,1,40,33.59,6.25,6.25,0,0,1,43.53,29.86Zm0,.09a5,5,0,0,0-2.9,3.81,8.5,8.5,0,0,0,.51,4.73,7.76,7.76,0,0,0,3,3.64,5.45,5.45,0,0,0,4.58.64,5,5,0,0,0,3.14-3.56,7.39,7.39,0,0,0-.56-4.82,9.23,9.23,0,0,0-3-3.73A5,5,0,0,0,43.57,30Z"/><path d="M45.53,35.79a10.69,10.69,0,0,0-.92-1.26,5.09,5.09,0,0,1-.92-1.83l0,0a6.94,6.94,0,0,0-.22-1.31,6.77,6.77,0,0,0-.51-1.22l.52-.19a12,12,0,0,1,1.39,3.15C45.12,34.2,45.27,35.14,45.53,35.79Zm0-.09a19.62,19.62,0,0,0-1.62-3,7.52,7.52,0,0,1-.91-2.55l.52-.19a6.78,6.78,0,0,0,.28,1.29,6.94,6.94,0,0,0,.57,1.2l0,0a2.67,2.67,0,0,1,.59,1.36A8.08,8.08,0,0,0,45.49,35.7Z"/><ellipse class="cls-7" cx="59.24" cy="44.28" rx="3.44" ry="4.1" transform="translate(5.4 95) rotate(-80.07)"/><path class="cls-8" d="M59.81,44.16l2,.23,1.48.38Z"/></g></g></svg>