<svg xmlns="http://www.w3.org/2000/svg" viewBox="0 0 519.74 266.78"><defs><style>.cls-1{fill:#fff;}</style></defs><title>Asset 11</title><g id="Layer_2" data-name="Layer 2"><g id="Layer_1-2" data-name="Layer 1"><path class="cls-1" d="M37.27,174.42a16.69,16.69,0,0,1,2.41-2.06,16.45,16.45,0,0,1,2.79-1.57,16,16,0,0,1,3.09-1,15.76,15.76,0,0,1,3.33-.35,16.82,16.82,0,0,1,5.42.87,15.19,15.19,0,0,1,4.57,2.48,15.53,15.53,0,0,1,3.49,3.9,17.75,17.75,0,0,1,2.18,5.13h-4.8A12.21,12.21,0,0,0,58,178.5a10.41,10.41,0,0,0-2.49-2.37,10.75,10.75,0,0,0-3.08-1.43,12.84,12.84,0,0,0-3.53-.48,11.06,11.06,0,0,0-2.35.25,11.22,11.22,0,0,0-2.19.72,11.62,11.62,0,0,0-2,1.13,12,12,0,0,0-1.73,1.49,12.65,12.65,0,0,0-1.43,1.8A12.23,12.23,0,0,0,37.42,184a12.79,12.79,0,0,0-.24,2.5,12.3,12.3,0,0,0,.24,2.44,12.13,12.13,0,0,0,.69,2.26,12.35,12.35,0,0,0,1.09,2A12.73,12.73,0,0,0,40.63,195a12,12,0,0,0,1.73,1.49,11.62,11.62,0,0,0,2,1.13,11.22,11.22,0,0,0,2.19.72,11.06,11.06,0,0,0,2.35.25,12.34,12.34,0,0,0,3.64-.54A11.13,11.13,0,0,0,58.27,194,12.51,12.51,0,0,0,60,190.6h4.75a18.38,18.38,0,0,1-2.19,5.22,16.34,16.34,0,0,1-3.54,4,15.53,15.53,0,0,1-4.65,2.62,16.44,16.44,0,0,1-5.51.93,16,16,0,0,1-9.21-2.92,16.22,16.22,0,0,1-2.41-2.08A18,18,0,0,1,33.79,193a17.32,17.32,0,0,1-1-3.17,16.94,16.94,0,0,1-.34-3.4,17.39,17.39,0,0,1,1.32-6.66,17.77,17.77,0,0,1,1.52-2.88A18,18,0,0,1,37.27,174.42Z"/><path class="cls-1" d="M71.31,174.23a17.14,17.14,0,0,1,5.44-3.71,16.88,16.88,0,0,1,13.35,0,17.29,17.29,0,0,1,2.91,1.6,17.76,17.76,0,0,1,2.55,2.11,18.09,18.09,0,0,1,2.06,2.55,17.69,17.69,0,0,1,1.57,2.91,17.08,17.08,0,0,1,0,13.37A17.69,17.69,0,0,1,97.6,196a18.09,18.09,0,0,1-2.06,2.55A17.27,17.27,0,0,1,93,200.65a16.84,16.84,0,0,1-6.14,2.61,17.24,17.24,0,0,1-6.91,0,16.81,16.81,0,0,1-6.13-2.61,16.65,16.65,0,0,1-2.52-2.13A18.09,18.09,0,0,1,69.25,196a17.69,17.69,0,0,1-1.57-2.91,17.08,17.08,0,0,1,0-13.37,17.69,17.69,0,0,1,1.57-2.91A18.09,18.09,0,0,1,71.31,174.23Zm20.79,3.46A12.58,12.58,0,0,0,88.14,175a12.25,12.25,0,0,0-2.3-.73,11.85,11.85,0,0,0-7.15.73,12.23,12.23,0,0,0-3.88,2.67,12.32,12.32,0,0,0-2.63,3.89,12.27,12.27,0,0,0,1.13,11.67,13,13,0,0,0,3.3,3.33,12.17,12.17,0,0,0,2.07,1.15,12,12,0,0,0,2.28.73,11.84,11.84,0,0,0,4.87,0,12.25,12.25,0,0,0,2.3-.73,12.13,12.13,0,0,0,5.41-4.47,12.36,12.36,0,0,0,1.12-2.07,12.21,12.21,0,0,0,.71-2.31,12.62,12.62,0,0,0,0-5,12.22,12.22,0,0,0-.71-2.31,12.35,12.35,0,0,0-1.12-2.07A12.65,12.65,0,0,0,92.09,177.69Z"/><path class="cls-1" d="M108.22,203.18h-4.85V169.62h20v4.85H108.22v9.46h13.44v4.9H108.22v14.35Z"/><path class="cls-1" d="M129.77,203.18h-4.85V169.62h20v4.85H129.77v9.46h13.44v4.9H129.77v14.35Z"/><path class="cls-1" d="M151.37,198.33H167v4.85h-20.5V169.62h20.45v4.85H151.37v9.46h15.22v4.9H151.37v9.5Z"/><path class="cls-1" d="M173.83,198.33h15.6v4.85h-20.5V169.62h20.45v4.85H173.83v9.46H189v4.9H173.83v9.5Z"/><path class="cls-1" d="M226.1,177.64a6.69,6.69,0,0,0-1.09-1.73,5.16,5.16,0,0,0-1.35-1.09,5.57,5.57,0,0,0-1.53-.57,7.71,7.71,0,0,0-1.63-.16,8.34,8.34,0,0,0-2.28.31,6.55,6.55,0,0,0-2,.92,4.67,4.67,0,0,0-1.4,1.5,4.26,4.26,0,0,0-.55,2.07,5.82,5.82,0,0,0,.26,1.76,4.14,4.14,0,0,0,.85,1.52,4,4,0,0,0,1.57,1.07,6.58,6.58,0,0,0,2.42.4H235v4.8h-3.36v5.62a9.21,9.21,0,0,1-.75,3.74,8.25,8.25,0,0,1-2.2,2.95,10.45,10.45,0,0,1-3.55,2,16.37,16.37,0,0,1-4.83.77,15.9,15.9,0,0,1-5.68-.86,10.63,10.63,0,0,1-3.94-2.44,9.15,9.15,0,0,1-2.2-3.5,9.57,9.57,0,0,1-.47-4,9.14,9.14,0,0,1,.47-1.87,8.81,8.81,0,0,1,1-1.88,8,8,0,0,1,3.66-3,6.86,6.86,0,0,1-2.84-3.16,8.32,8.32,0,0,1-.58-1.89,10.43,10.43,0,0,1-.17-1.91,9.22,9.22,0,0,1,.95-4.18,8.93,8.93,0,0,1,2.5-3,11.19,11.19,0,0,1,3.52-1.83,13.34,13.34,0,0,1,4-.62,12.66,12.66,0,0,1,3,.35,9.35,9.35,0,0,1,2.76,1.16,9.17,9.17,0,0,1,2.36,2.16,12.77,12.77,0,0,1,1.82,3.34l-1.09.34-1.09.34-1.09.34Zm-13.3,15.46a4.4,4.4,0,0,0,.34,2,5,5,0,0,0,1.33,1.82,6.77,6.77,0,0,0,2.36,1.32,10.76,10.76,0,0,0,3.42.51,10,10,0,0,0,2.75-.35,6.24,6.24,0,0,0,2.07-1,4.3,4.3,0,0,0,1.76-3.55v-5.42h-7.49a8.79,8.79,0,0,0-2.89.34,5.48,5.48,0,0,0-2,1.07,4.75,4.75,0,0,0-1.18,1.53A5.15,5.15,0,0,0,212.81,193.1Z"/><path class="cls-1" d="M272.52,178.26a4.64,4.64,0,0,0-.94-2,5.56,5.56,0,0,0-1.64-1.34,7.82,7.82,0,0,0-2.06-.76,9.54,9.54,0,0,0-2.21-.22,10.73,10.73,0,0,0-1.72.17,9.44,9.44,0,0,0-1.67.47,7.24,7.24,0,0,0-1.5.78,5.38,5.38,0,0,0-1.2,1.12,3.73,3.73,0,0,0-.42.69,4.08,4.08,0,0,0-.27.76,4.72,4.72,0,0,0-.13.82,5.57,5.57,0,0,0,0,.85,3.5,3.5,0,0,0,.79,2.07,4.43,4.43,0,0,0,1.77,1.21,11.23,11.23,0,0,0,2.4.63c.87.14,1.78.23,2.68.32a35.68,35.68,0,0,1,3.58.6,16.63,16.63,0,0,1,3.47,1.17,9.09,9.09,0,0,1,2.85,2.07A7.46,7.46,0,0,1,278,191c0,.18.07.37.1.55s.05.38.08.57,0,.38,0,.56,0,.36,0,.53a8.85,8.85,0,0,1-1.1,4.33,10.09,10.09,0,0,1-2.87,3.21,13.51,13.51,0,0,1-4,2,15.25,15.25,0,0,1-4.5.69,14.57,14.57,0,0,1-4-.57,13.76,13.76,0,0,1-3.77-1.71,10.32,10.32,0,0,1-2.91-2.84,8.62,8.62,0,0,1-1.42-3.95v-.91l1.22,0,1.22,0,1.22,0,1.22,0v.53a4.08,4.08,0,0,0,.84,2.06,5.87,5.87,0,0,0,1.74,1.49,8.91,8.91,0,0,0,2.27.9,9.92,9.92,0,0,0,2.4.3,10.16,10.16,0,0,0,2.7-.37,8.71,8.71,0,0,0,2.42-1.07,5.75,5.75,0,0,0,1.75-1.72,4.28,4.28,0,0,0,.67-2.31q0-.13,0-.26t0-.28,0-.3q0-.15-.06-.31a2.85,2.85,0,0,0-.93-1.54,5.1,5.1,0,0,0-1.73-.94,13.4,13.4,0,0,0-2.25-.53c-.81-.13-1.65-.22-2.49-.3a34.82,34.82,0,0,1-4-.59,14.17,14.17,0,0,1-3.72-1.32,7.82,7.82,0,0,1-2.84-2.53,8.68,8.68,0,0,1-1.35-4.24h0a9.74,9.74,0,0,1,0-1.69,9.2,9.2,0,0,1,.3-1.65,8.88,8.88,0,0,1,1.52-3,9.94,9.94,0,0,1,2-1.93,12.2,12.2,0,0,1,2.48-1.4,14.31,14.31,0,0,1,2.79-.85,15.07,15.07,0,0,1,2.91-.29,14.38,14.38,0,0,1,3.85.52,11.72,11.72,0,0,1,3.48,1.6,9.47,9.47,0,0,1,2.67,2.75,9.93,9.93,0,0,1,1.42,4l-1.2,0-1.2,0-1.2,0Z"/><path class="cls-1" d="M300.79,193.29h-12l-1,2.45-1.08,2.6c-.36.87-.71,1.73-1,2.55s-.63,1.59-.89,2.29h-5.23l3.37-8.51,3.37-8.51,3.37-8.51,3.37-8.51h3.55l3.37,8.51,3.37,8.51,3.37,8.51,3.37,8.51h-5.18l-1-2.47-1-2.47-1-2.47Zm-10.22-4.56h8.35l-1-3-1-3-1-3-1-3-1.06,3-1.06,3-1.06,3Z"/><path class="cls-1" d="M311.54,203.18V169.52h3.74l4.09,5.92,4.09,5.92,4.09,5.92,4.09,5.92V169.57h4.8v33.6h-3.84l-4.06-5.87-4.06-5.87-4.06-5.87-4.06-5.87v23.47h-4.85Z"/><path class="cls-1" d="M353.35,169.62a17.6,17.6,0,0,1,7.22,1.44,14.82,14.82,0,0,1,5.16,3.81,16.37,16.37,0,0,1,3.1,5.38,18.89,18.89,0,0,1,0,12.33,16.28,16.28,0,0,1-3.1,5.37,14.8,14.8,0,0,1-5.16,3.79,17.67,17.67,0,0,1-7.22,1.44h-12V169.62h12Zm0,28.71a12.46,12.46,0,0,0,5.11-1,10.54,10.54,0,0,0,3.66-2.7,11.62,11.62,0,0,0,2.2-3.81,13.36,13.36,0,0,0,0-8.75,11.71,11.71,0,0,0-2.2-3.83,10.56,10.56,0,0,0-3.66-2.71,12.39,12.39,0,0,0-5.11-1h-7.2v23.86h7.2Z"/><path class="cls-1" d="M389.78,187.19c-.48,1.37-1,2.75-1.47,4.12l-1.5,4.11c-.5,1.36-1,2.71-1.47,4s-.93,2.63-1.37,3.91h-3.41l-2.82-8.44-2.82-8.44-2.82-8.44-2.82-8.44h5l2,6.06,2,6.06,2,6.06,2,6.06,1.38-3.92L385.1,186l1.38-3.92,1.38-3.92h3.89l1.37,3.91,1.37,3.91,1.37,3.91,1.37,3.91c.66-2,1.34-4,2-6.09l2.06-6.15,2-6.08c.67-2,1.32-4,1.94-5.87h5.09l-2.82,8.44-2.82,8.44-2.82,8.44-2.82,8.44h-3.41l-1.48-4-1.48-4-1.48-4Z"/><path class="cls-1" d="M428.61,174.42h-6.24v23.91h6.24v4.85H411.28v-4.85h6.24V174.42h-6.24v-4.8h17.33v4.8Z"/><path class="cls-1" d="M433.46,174.42a16.7,16.7,0,0,1,2.41-2.06,16.45,16.45,0,0,1,2.79-1.57,16,16,0,0,1,3.09-1,15.76,15.76,0,0,1,3.33-.35,16.82,16.82,0,0,1,5.42.87,15.19,15.19,0,0,1,4.57,2.48,15.53,15.53,0,0,1,3.49,3.9,17.75,17.75,0,0,1,2.18,5.13h-4.8a12.21,12.21,0,0,0-1.75-3.31,10.41,10.41,0,0,0-2.49-2.37,10.75,10.75,0,0,0-3.08-1.43,12.83,12.83,0,0,0-3.53-.48,11.07,11.07,0,0,0-2.35.25,11.22,11.22,0,0,0-2.19.72,11.61,11.61,0,0,0-2,1.13,12,12,0,0,0-1.73,1.49,12.65,12.65,0,0,0-1.43,1.8,12.23,12.23,0,0,0-1.78,4.35,12.79,12.79,0,0,0-.24,2.5,12.3,12.3,0,0,0,.24,2.44,12.13,12.13,0,0,0,.69,2.26,12.35,12.35,0,0,0,1.09,2,12.73,12.73,0,0,0,1.43,1.79,12,12,0,0,0,1.73,1.49,11.61,11.61,0,0,0,2,1.13,11.22,11.22,0,0,0,2.19.72,11.07,11.07,0,0,0,2.35.25,12.34,12.34,0,0,0,3.64-.54,11.13,11.13,0,0,0,5.74-4.08,12.51,12.51,0,0,0,1.75-3.4H461a18.38,18.38,0,0,1-2.19,5.22,16.34,16.34,0,0,1-3.54,4,15.54,15.54,0,0,1-4.65,2.62,16.44,16.44,0,0,1-5.51.93,16,16,0,0,1-9.21-2.92,16.23,16.23,0,0,1-2.41-2.08A18,18,0,0,1,430,193a17.32,17.32,0,0,1-1-3.17,16.94,16.94,0,0,1-.34-3.4,17.39,17.39,0,0,1,1.32-6.66,17.77,17.77,0,0,1,1.52-2.88A18,18,0,0,1,433.46,174.42Z"/><path class="cls-1" d="M468.16,183.78h14.21V169.62h4.9v33.55h-4.9V188.58H468.16v14.59h-4.85V169.62h4.85v14.16Z"/><path class="cls-1" d="M375.83,253q9.36.45,18.64.79t18.49.56q9.21.22,18.49.76t18.64,1.39l-18.64.79L413,258q-9.21.38-18.49.56t-18.64.19q-4.65.45-9.28.71t-9.25.34q-4.62.08-9.25.11t-9.28,0H308.62a3.17,3.17,0,0,0-1,.15,4.11,4.11,0,0,0-1,.45l-.45.28-.39.22q-2.09,1.3-4.16,2.34a43.32,43.32,0,0,1-4.13,1.81,24.37,24.37,0,0,1-4.13,1.16,22.56,22.56,0,0,1-4.16.39,15.41,15.41,0,0,1-4-.54,18,18,0,0,1-4-1.61,13.57,13.57,0,0,1-3.72-3.11,25.84,25.84,0,0,1-3.31-5,19.46,19.46,0,0,0-2.88,1,14.69,14.69,0,0,0-2.43,1.32q-1.1.75-2.16,1.33a18.72,18.72,0,0,1-2.07,1q-2.09,1.3-4.16,2.34a43.32,43.32,0,0,1-4.13,1.81,24.37,24.37,0,0,1-4.13,1.16,22.56,22.56,0,0,1-4.16.39,15.81,15.81,0,0,1-4.1-.54,17.31,17.31,0,0,1-3.95-1.61,13.57,13.57,0,0,1-3.68-3.11,26.26,26.26,0,0,1-3.29-5,20.09,20.09,0,0,0-2.89,1,15.53,15.53,0,0,0-2.47,1.32q-1.13.75-2.21,1.33a19.75,19.75,0,0,1-2.09,1q-2.09,1.3-4.16,2.34a43.32,43.32,0,0,1-4.13,1.81,24.37,24.37,0,0,1-4.13,1.16,22.56,22.56,0,0,1-4.16.39,12.42,12.42,0,0,1-6-1.7,25.76,25.76,0,0,1-6.23-5.1H181q-4.65,0-9.28,0t-9.25-.11q-4.62-.07-9.25-.34t-9.28-.71q-9.36,0-18.64-.19T106.78,258l-18.49-.76-18.64-.79q9.36-.85,18.64-1.39t18.49-.76q9.21-.22,18.49-.56t18.64-.79H181l18.47-.6,18.47-.6a3.73,3.73,0,0,0,1.1-.17,5.51,5.51,0,0,0,1.16-.53q.59-.35,1.43-.75t1.91-.85l4-1.62,3.59-1.48a18.1,18.1,0,0,1,3.56-1,21,21,0,0,1,3.89-.35,16.49,16.49,0,0,1,4.16.54,19.46,19.46,0,0,1,4.13,1.61,17.13,17.13,0,0,1,4.1,3.11,34,34,0,0,1,4.07,5q1.07-.85,2.18-1.57t2.24-1.33l2.47-1.32,2.89-1.57,3.89-1.62,3.56-1.48a18,18,0,0,1,3.59-1,21.85,21.85,0,0,1,4-.35,16.31,16.31,0,0,1,4.14.54,18.93,18.93,0,0,1,4.08,1.61,17.7,17.7,0,0,1,4.08,3.11,36.14,36.14,0,0,1,4.14,5q1.07-.85,2.16-1.57t2.19-1.33l2.43-1.32,2.88-1.57,4-1.62,3.59-1.48a18.09,18.09,0,0,1,3.56-1,21,21,0,0,1,3.89-.35,16.33,16.33,0,0,1,3.95.46,13.94,13.94,0,0,1,3.5,1.39,16.11,16.11,0,0,1,3.23,2.46,27.3,27.3,0,0,1,3.14,3.69h41.12Zm-142.66,3.5a25.86,25.86,0,0,0,4.41,1.42,19.28,19.28,0,0,0,4.17.47,24.72,24.72,0,0,0,3-.2q1.61-.2,3.4-.6a5,5,0,0,0,1.22-.17,11,11,0,0,0,1.52-.53,12.82,12.82,0,0,0,1.52-.75,8.85,8.85,0,0,0,1.22-.85,11.88,11.88,0,0,0-3.61-2.1,12.09,12.09,0,0,0-4.14-.7,16.18,16.18,0,0,0-3.64.43,20.56,20.56,0,0,0-3.75,1.27,4.66,4.66,0,0,0-1.15.18,12.84,12.84,0,0,0-1.53.52,11.27,11.27,0,0,0-1.53.75A6.53,6.53,0,0,0,233.17,256.48Zm41.12,0a27.32,27.32,0,0,0,4.5,1.42,19.69,19.69,0,0,0,4.2.47,23.58,23.58,0,0,0,2.95-.2q1.58-.2,3.37-.6a5.18,5.18,0,0,0,1.24-.17,11.85,11.85,0,0,0,1.56-.53,12.85,12.85,0,0,0,1.56-.75,8.42,8.42,0,0,0,1.24-.85,11.88,11.88,0,0,0-3.61-2.1,12.09,12.09,0,0,0-4.14-.7,16.17,16.17,0,0,0-3.63.43,20.56,20.56,0,0,0-3.75,1.27,4.83,4.83,0,0,0-1.16.18,13.89,13.89,0,0,0-1.58.52,11.41,11.41,0,0,0-1.58.75A6.31,6.31,0,0,0,274.29,256.48Z"/><path class="cls-1" d="M82,6.15A52.08,52.08,0,0,1,93.73,7.39a37.51,37.51,0,0,1,9.84,3.71,41,41,0,0,1,8,5.76,38,38,0,0,1,6.17,7.37A42.68,42.68,0,0,1,122,33a49.32,49.32,0,0,1,2.38,10,59.08,59.08,0,0,1,.45,10.74,66.39,66.39,0,0,1-1.5,11.08A73.78,73.78,0,0,1,119.94,76a85.5,85.5,0,0,1-5.34,11.08,77.05,77.05,0,0,1-7.28,10.56,86.42,86.42,0,0,1-9.22,9.62,83.75,83.75,0,0,1-11.21,8.44,101.77,101.77,0,0,1-13.24,7,96.05,96.05,0,0,1-15.26,5.21,123.58,123.58,0,0,1-17.29,3,15,15,0,0,1-.43,2,13.5,13.5,0,0,1-.69,1.88,3.21,3.21,0,0,1-1.07,1.35,2.68,2.68,0,0,1-1.56.45,5.88,5.88,0,0,1-1.69-.36A27.45,27.45,0,0,1,33,135.22q-1.58-.71-3.11-1.59t-3-1.93a31.35,31.35,0,0,1-5.51-.45,19.69,19.69,0,0,1-4.54-1.35A29.44,29.44,0,0,1,13.18,128a17.86,17.86,0,0,1-2.76-2.08,14,14,0,0,1-1.86-2.06A5.74,5.74,0,0,1,7.65,122a2.08,2.08,0,0,1,0-1.29.77.77,0,0,1,.79-.43,13.32,13.32,0,0,1,1.65.09,7.87,7.87,0,0,1,1.35.28q.6.19,1.18.41t1.14.49q.56.26,1.2.49t1.35.41a10.78,10.78,0,0,0,1.63.28,20.25,20.25,0,0,0,2,.09l.28,0,.24-.06.24-.06.28,0q.45-1.2,1.37-3.36t2.31-5.27q1.39-3.11,3.06-6.79t3.62-7.91q1.95-4.24,4.09-8.92t4.46-9.83q2.32-5.14,4.57-10.35t4.43-10.5q2.17-5.29,4.22-10.5t4-10.35Q59,33.79,60.54,29t2.76-9.09q-4.43,2.18-8.81,4.89t-8.74,6q-4.35,3.26-8.23,6.83a99.57,99.57,0,0,0-7.29,7.42A81.65,81.65,0,0,0,24,53a72.2,72.2,0,0,0-4.91,8.29,41.82,41.82,0,0,0-3.21,8.38,32.71,32.71,0,0,0-1.07,8.19A28.82,28.82,0,0,0,15,80.77a12.45,12.45,0,0,0,.39,2.17q.26.9.53,1.59a9.91,9.91,0,0,0,.52,1.18q.26.49.53.88a6.68,6.68,0,0,0,.52.69,2,2,0,0,1,.39.68,2.48,2.48,0,0,1,.13.82,1.38,1.38,0,0,1-.71,1.39,3.26,3.26,0,0,1-2.14,0,10.62,10.62,0,0,1-3-1.37,21.55,21.55,0,0,1-3.24-2.61A23.79,23.79,0,0,1,5.7,82.29,39.35,39.35,0,0,1,2.77,77.1,27.25,27.25,0,0,1,.69,70.61,40.65,40.65,0,0,1,0,62.85a16,16,0,0,1,.58-4.07,29,29,0,0,1,1.74-4.71,46,46,0,0,1,2.81-5.14,64.79,64.79,0,0,1,3.79-5.36q2.14-2.74,4.71-5.49t5.57-5.53q3-2.77,6.34-5.36t7-5q3.67-2.4,7.61-4.54t8.14-4a87,87,0,0,1,8.59-3.3,89.21,89.21,0,0,1,9-2.4q.07-.6.13-1.2t.1-1.2q0-.6.06-1.2t0-1.2a3.78,3.78,0,0,1,.39-1.84,2.2,2.2,0,0,1,1.18-1A4.88,4.88,0,0,1,69.47,0a8.15,8.15,0,0,1,2.08.3,13.48,13.48,0,0,1,2.31.86,19.52,19.52,0,0,1,2.42,1.39,25.87,25.87,0,0,1,2.31,1.73,21.77,21.77,0,0,1,2,1.87H82ZM47.7,116.85a86.76,86.76,0,0,0,10.48-4.42A87.75,87.75,0,0,0,68,106.65a110.54,110.54,0,0,0,9.06-6.82,103.75,103.75,0,0,0,8.12-7.58q3.82-4,7.16-8.19a105.79,105.79,0,0,0,6.19-8.68q2.85-4.46,5.08-8.87a84.26,84.26,0,0,0,3.84-8.76A68.49,68.49,0,0,0,110,49.22,55.23,55.23,0,0,0,111.3,41a37.53,37.53,0,0,0-.15-7.54,27.19,27.19,0,0,0-1.65-6.56,20,20,0,0,0-3.21-5.46,20.71,20.71,0,0,0-4.82-4.22,21.32,21.32,0,0,0-6.54-2.7,35.82,35.82,0,0,0-8.38-.9h0q-.45,1.43-1.37,4t-2.31,6.17q-1.39,3.64-3,7.88l-3.51,9.07q-1.88,4.84-3.86,10T68.4,61.5l-4.14,11-4,10.65L56.4,93.21l-3.52,9.32q-1.69,4.46-3,8T47.7,116.85Z"/><path class="cls-1" d="M192.3,79.5a3.38,3.38,0,0,1,1-.92.86.86,0,0,1,.83-.06,2,2,0,0,1,.66.54,3.11,3.11,0,0,1,.47.88,7.92,7.92,0,0,1,.3,1.09,8.82,8.82,0,0,1,.15,1.16,5.28,5.28,0,0,1,0,1,1.54,1.54,0,0,1-.21.64q-.83,1.13-2.08,2.79l-2.94,3.88q-1.69,2.21-3.68,4.65t-4.27,5.1q-2.29,2.66-4.8,5.36t-5.25,5.44q-2.74,2.74-5.55,5.25t-5.7,4.8q-2.89,2.29-5.78,4.14a58.84,58.84,0,0,1-5.77,3.28,29.75,29.75,0,0,1-5.61,2.14,20.75,20.75,0,0,1-5.27.71,15.4,15.4,0,0,1-3.84-.51,21.06,21.06,0,0,1-4-1.52,33.42,33.42,0,0,1-4-2.29,34.65,34.65,0,0,1-6.75-6,28,28,0,0,1-2.49-3.36,13.7,13.7,0,0,1-1.56-3.26,7.17,7.17,0,0,1-.32-2.89,59.84,59.84,0,0,1,1-6.75,64.26,64.26,0,0,1,1.78-6.75q1.09-3.37,2.44-6.58t3-6.24q1.61-3,3.39-5.89t3.73-5.51q1.95-2.66,4-4.95a56.51,56.51,0,0,1,4.07-4.2,49.18,49.18,0,0,1,4.11-3.43,36.82,36.82,0,0,1,4.07-2.64A20.19,20.19,0,0,1,151.16,57a11.92,11.92,0,0,1,3.49-.56,15.34,15.34,0,0,1,4.12.56,17.13,17.13,0,0,1,4,1.69,25,25,0,0,1,3.62,2.53,23.89,23.89,0,0,1,3.06,3.09,28.83,28.83,0,0,1,2.47,3.51,27.14,27.14,0,0,1,1.88,3.77,21.17,21.17,0,0,1,1.14,3.71,13.63,13.63,0,0,1,.28,3.34,13.74,13.74,0,0,1-.88,3.51,29.8,29.8,0,0,1-2,4.22,40.21,40.21,0,0,1-3,4.46,46.18,46.18,0,0,1-12.69,11.36,21.46,21.46,0,0,1-5,2.25,17.62,17.62,0,0,1-5.06.75q-1.5,0-2.83-.09t-2.49-.28q-1.16-.19-2.23-.47a19.37,19.37,0,0,1-2-.66q-.75,2-1.35,3.92t-1,3.66q-.45,1.76-.69,3.3a22.34,22.34,0,0,0-.28,2.85,9.93,9.93,0,0,0,.19,2.36,5.74,5.74,0,0,0,.71,1.84,3.16,3.16,0,0,0,1.26,1.18,3.94,3.94,0,0,0,1.82.39,20.5,20.5,0,0,0,4.76-.58,27.28,27.28,0,0,0,5-1.74,54.37,54.37,0,0,0,5.12-2.68q2.57-1.52,5.16-3.39t5.14-4q2.55-2.14,5.06-4.54t4.89-4.82Q175,99,177.3,96.52t4.33-4.76q2.08-2.33,4-4.54l3.58-4.14Zm-31.5-12A4,4,0,0,0,159,68a9.84,9.84,0,0,0-2,1.46,28,28,0,0,0-2.25,2.29q-1.16,1.31-2.4,3t-2.49,3.56q-1.26,1.91-2.53,4.09t-2.51,4.43q-1.24,2.25-2.44,4.57a23.78,23.78,0,0,0,5.49-2,23.1,23.1,0,0,0,4.78-3.26,44.12,44.12,0,0,0,4-4,33.11,33.11,0,0,0,3.08-4.07,24.86,24.86,0,0,0,2.06-3.9,13.25,13.25,0,0,0,.94-3.45,4,4,0,0,0-.28-2.42A1.69,1.69,0,0,0,160.8,67.5Z"/><path class="cls-1" d="M279.45,21.15q-.08.67-.3,1.82t-.6,2.76q-.38,1.61-.86,3.47t-1.09,4q-.6,2.1-1.26,4.33T274,42.07q-.71,2.36-1.37,4.65t-1.26,4.5q-.6,2.21-1.11,4.24t-.92,3.86q-.41,1.84-.62,3.24a16.85,16.85,0,0,0-.21,2.38,1.17,1.17,0,0,1-.47,1,2.41,2.41,0,0,1-1.41.34,5.61,5.61,0,0,1-2-.37,9.58,9.58,0,0,1-2.1-1.13,10.43,10.43,0,0,1-2.06-1.91,16.79,16.79,0,0,1-1.84-2.74,11.63,11.63,0,0,1-1.22-3.6,19.26,19.26,0,0,1-.21-4.5,22.91,22.91,0,0,1,.45-3.5,35,35,0,0,1,1.05-3.92q.68-2.06,1.46-4.12t1.69-4.13q.9-2.06,1.82-4.07t1.86-4q.94-1.95,1.69-3.67t1.31-3.23a22.25,22.25,0,0,0,.84-2.7,9.37,9.37,0,0,0,.28-2.1,1.83,1.83,0,0,0-.45-1.35,1.83,1.83,0,0,0-1.35-.45A14.34,14.34,0,0,0,262.44,16a26.11,26.11,0,0,0-5.87,3.49,63.12,63.12,0,0,0-6.09,5.36,90.14,90.14,0,0,0-6.13,6.79q-3.08,3.75-6,8t-5.76,9.13q-2.81,4.84-5.29,9.79t-4.61,10q-2.14,5.06-3.83,10t-2.92,9.79a72.49,72.49,0,0,0-1.76,9.13,47,47,0,0,0-.34,8,25.94,25.94,0,0,0,1.18,6.79,17.62,17.62,0,0,0,2.79,5.36,11,11,0,0,0,4.65,3.49,17.82,17.82,0,0,0,6.75,1.16,36.7,36.7,0,0,0,6.82-.64,38.09,38.09,0,0,0,6.68-1.91,60.16,60.16,0,0,0,6.39-2.91,59.46,59.46,0,0,0,6-3.62q2.89-2,5.55-4.18t5.1-4.6q2.44-2.4,4.54-4.71t3.86-4.52q1.76-2.21,3.13-4.2t2.34-3.75a25.72,25.72,0,0,0,1.46-3,5.93,5.93,0,0,0,.49-2,1.1,1.1,0,0,1,.21-.75.63.63,0,0,1,.62-.15,2.5,2.5,0,0,1,.84.34,4.8,4.8,0,0,1,.88.71,8,8,0,0,1,.86,1,11.58,11.58,0,0,1,.79,1.29,6.65,6.65,0,0,1,.56,1.44,5.94,5.94,0,0,1,.19,1.48,11.65,11.65,0,0,1-.71,3.23,27.12,27.12,0,0,1-1.84,4,52,52,0,0,1-2.81,4.5q-1.61,2.32-3.64,4.8t-4.41,5q-2.38,2.49-5.12,5t-5.7,4.76q-3,2.25-6.15,4.24a73.94,73.94,0,0,1-6.51,3.62,71.57,71.57,0,0,1-6.77,2.91,41.59,41.59,0,0,1-6.94,1.91,38.91,38.91,0,0,1-7,.64,63.29,63.29,0,0,1-14-1.39,32.35,32.35,0,0,1-10.41-4.16,29.93,29.93,0,0,1-7.26-6.45,27.31,27.31,0,0,1-4.52-8.25,37.34,37.34,0,0,1-1.91-9.79,51.07,51.07,0,0,1,.56-11.06A91.82,91.82,0,0,1,194,79.39a108.39,108.39,0,0,1,4.33-12q2.59-6.08,5.85-12t7.2-11.81q3.94-5.85,8.16-11.06t8.72-9.79a98.88,98.88,0,0,1,9.15-8.25,79.18,79.18,0,0,1,9.45-6.45,45.13,45.13,0,0,1,9.34-4.16A30.07,30.07,0,0,1,265,2.4,18.41,18.41,0,0,1,272,3.56,10.24,10.24,0,0,1,276.52,7a15.05,15.05,0,0,1,2.42,5.85A33.21,33.21,0,0,1,279.45,21.15Z"/><path class="cls-1" d="M322.8,80.55a4.65,4.65,0,0,1,1.09-1.24.76.76,0,0,1,.86-.11,2,2,0,0,1,.66.68,4.31,4.31,0,0,1,.47,1.12,8.59,8.59,0,0,1,.26,1.41,10.21,10.21,0,0,1,0,1.52,11.33,11.33,0,0,1-.13,1.33,3.13,3.13,0,0,1-.24.84L324,89l-2.34,3.81q-1.31,2.14-2.85,4.46t-3.3,4.84q-1.76,2.51-3.69,5.06t-4,5.14q-2.1,2.59-4.29,4.95t-4.48,4.5a54.15,54.15,0,0,1-4.63,3.88,44.54,44.54,0,0,1-4.74,3.09,21.91,21.91,0,0,1-4.8,2,17.65,17.65,0,0,1-4.8.68,7.42,7.42,0,0,1-1.59-.21,18.31,18.31,0,0,1-2.08-.62,11,11,0,0,1-2.25-1.11,13.51,13.51,0,0,1-2.1-1.67,14.32,14.32,0,0,1-1.87-2.23,19.23,19.23,0,0,1-1.58-2.79,11.66,11.66,0,0,1-1-3.43,18.27,18.27,0,0,1,0-4.14,18.57,18.57,0,0,1,.68-3.58q.6-2.23,1.72-5.34t2.49-6.79q1.37-3.68,3-7.91t3.38-8.92q1.76-4.69,3.67-9.83t3.73-10.39q1.82-5.25,3.54-10.61T293,41.14q1.52-5.33,2.83-10.61T298,20.27q.84-5,1.22-9.62a2.44,2.44,0,0,1,.52-1.42A2.12,2.12,0,0,1,301,8.55a6,6,0,0,1,1.84,0,11.42,11.42,0,0,1,2.21.54,24.83,24.83,0,0,1,2.47,1q1.28.6,2.63,1.39t2.61,1.65q1.26.86,2.42,1.8a24.44,24.44,0,0,1,2.1,1.9A17.8,17.8,0,0,1,319,18.75a7.72,7.72,0,0,1,1,1.84,3.62,3.62,0,0,1,.24,1.61,17.27,17.27,0,0,1-.39,1.73q-.32,1.2-.88,3.07t-1.31,4.22q-.75,2.34-1.69,5.16t-2,6q-1.11,3.21-2.38,6.81L309,56.53l-2.66,7.59q-1.35,3.86-2.74,7.78t-2.81,7.89q-1.43,4-2.78,7.78T295.35,95l-2.46,7-2.27,6.49q-1.09,3.11-2,5.72t-1.56,4.71a4.57,4.57,0,0,0,.07,2.25,1.11,1.11,0,0,0,1.13.75,4,4,0,0,0,1.76-.52,13.49,13.49,0,0,0,2.29-1.58q1.27-1,2.66-2.42t2.89-3.06q1.5-1.69,3.09-3.64t3.28-4.16q1.69-2.21,3.36-4.46t3.32-4.54q1.65-2.29,3.24-4.54t3.13-4.46q1.54-2.21,2.91-4.22T322.8,80.55Z"/><path class="cls-1" d="M366.9,80.25A4.88,4.88,0,0,1,368,79a.68.68,0,0,1,.81-.11,1.7,1.7,0,0,1,.56.67,4,4,0,0,1,.34,1.13,10.08,10.08,0,0,1,.13,1.41,12.78,12.78,0,0,1-.06,1.52,11,11,0,0,1-.19,1.29,2.28,2.28,0,0,1-.26.73q-.75,1.2-1.8,2.83t-2.4,3.69q-1.35,2.06-2.92,4.33t-3.38,4.74q-1.8,2.47-3.73,5t-4,5.12q-2.06,2.59-4.16,5t-4.24,4.56q-2.14,2.18-4.22,4a52.16,52.16,0,0,1-4.11,3.22,22.76,22.76,0,0,1-3.9,2.25,13.21,13.21,0,0,1-3.6,1h-.9a16.43,16.43,0,0,1-1.65-.11q-1-.11-2.55-.34a25,25,0,0,1-3-.66,29.55,29.55,0,0,1-3.11-1.07,15.5,15.5,0,0,1-2.92-1.56,14.77,14.77,0,0,1-2.47-2.12,7,7,0,0,1-1.61-2.81,10,10,0,0,1-.34-3.64,18.39,18.39,0,0,1,.54-3.26q.47-1.91,1.33-4.39t1.91-5.23q1-2.76,2.29-5.79t2.55-6.17q1.31-3.13,2.7-6.36t2.68-6.26q1.29-3,2.49-5.89T327,70.43q1-2.47,1.84-4.58t1.27-3.52a11.87,11.87,0,0,0,.53-2.18,2.39,2.39,0,0,1,2.85-2.55,10.35,10.35,0,0,1,2.77.56,15.46,15.46,0,0,1,2.93,1.39,25.13,25.13,0,0,1,2.87,2A26.44,26.44,0,0,1,344.62,64a10.15,10.15,0,0,1,1.82,2.53,4.7,4.7,0,0,1,.51,2.34,13.54,13.54,0,0,1-.38,1.82q-.3,1.14-.82,2.76T344.56,77q-.66,1.91-1.44,4.12t-1.67,4.61q-.88,2.4-1.86,5l-2,5.16-1.95,5.12q-1,2.55-1.89,5T332,110.77q-.86,2.36-1.59,4.41t-1.33,3.77a7.14,7.14,0,0,0-.41,3,1.09,1.09,0,0,0,1.16,1,4.4,4.4,0,0,0,1.91-.54,13.94,13.94,0,0,0,2.44-1.63q1.35-1.09,2.85-2.53T340.2,115q1.65-1.8,3.39-3.82t3.58-4.28q1.84-2.25,3.64-4.57t3.56-4.73l3.47-4.72,3.36-4.58q1.65-2.25,3.07-4.28T366.9,80.25ZM346.65,48.6a15.55,15.55,0,0,1-2.4-.19,16.55,16.55,0,0,1-2.4-.56,15.85,15.85,0,0,1-2.27-.9,13.92,13.92,0,0,1-2-1.2,11.94,11.94,0,0,1-1.69-1.46,10.58,10.58,0,0,1-1.31-1.69,6.6,6.6,0,0,1-.81-1.84,5.77,5.77,0,0,1-.17-1.91,13.23,13.23,0,0,1,.69-3.06,18.37,18.37,0,0,1,1.48-3.17,24.38,24.38,0,0,1,2.12-3.07,25.93,25.93,0,0,1,2.61-2.78,30.86,30.86,0,0,1,2.94-2.4,28.37,28.37,0,0,1,3.13-2,15.56,15.56,0,0,1,3.17-1.29,11.41,11.41,0,0,1,3.06-.43,11.76,11.76,0,0,1,4.05.66,8.79,8.79,0,0,1,3.15,2,7.61,7.61,0,0,1,1.95,3.17,11.48,11.48,0,0,1,.45,4.26,17.09,17.09,0,0,1-.55,2.57,27.47,27.47,0,0,1-1,2.91,25.7,25.7,0,0,1-1.48,3,27.5,27.5,0,0,1-1.89,2.85,21.17,21.17,0,0,1-2.27,2.55,20,20,0,0,1-2.61,2.1,11.1,11.1,0,0,1-2.87,1.41A10.07,10.07,0,0,1,346.65,48.6Z"/><path class="cls-1" d="M432.44,79.5a3.39,3.39,0,0,1,1-.92.86.86,0,0,1,.83-.06,2,2,0,0,1,.66.54,3.11,3.11,0,0,1,.47.88,7.9,7.9,0,0,1,.3,1.09,8.76,8.76,0,0,1,.15,1.16,5.25,5.25,0,0,1,0,1,1.54,1.54,0,0,1-.21.64q-.83,1.13-2.08,2.79l-2.94,3.88q-1.69,2.21-3.68,4.65t-4.27,5.1q-2.29,2.66-4.8,5.36t-5.25,5.44q-2.74,2.74-5.55,5.25t-5.7,4.8q-2.89,2.29-5.78,4.14a58.77,58.77,0,0,1-5.77,3.28,29.73,29.73,0,0,1-5.61,2.14,20.75,20.75,0,0,1-5.27.71,15.4,15.4,0,0,1-3.84-.51,21.06,21.06,0,0,1-4-1.52,33.46,33.46,0,0,1-4-2.29,34.6,34.6,0,0,1-6.75-6,28.09,28.09,0,0,1-2.49-3.36,13.7,13.7,0,0,1-1.56-3.26,7.17,7.17,0,0,1-.32-2.89,59.92,59.92,0,0,1,1-6.75,64.29,64.29,0,0,1,1.78-6.75q1.09-3.37,2.44-6.58t3-6.24q1.61-3,3.39-5.89t3.73-5.51q1.95-2.66,4-4.95a56.6,56.6,0,0,1,4.07-4.2,49.17,49.17,0,0,1,4.11-3.43,36.87,36.87,0,0,1,4.07-2.64A20.18,20.18,0,0,1,391.31,57a11.92,11.92,0,0,1,3.49-.56,15.34,15.34,0,0,1,4.12.56,17.13,17.13,0,0,1,4,1.69,24.94,24.94,0,0,1,3.62,2.53,23.89,23.89,0,0,1,3.06,3.09A28.8,28.8,0,0,1,412,67.78a27.13,27.13,0,0,1,1.88,3.77,21.17,21.17,0,0,1,1.14,3.71,13.63,13.63,0,0,1,.28,3.34,13.73,13.73,0,0,1-.88,3.51,29.86,29.86,0,0,1-2,4.22,40.2,40.2,0,0,1-3,4.46,46.17,46.17,0,0,1-12.69,11.36,21.47,21.47,0,0,1-5,2.25,17.62,17.62,0,0,1-5.06.75q-1.5,0-2.83-.09t-2.49-.28q-1.16-.19-2.23-.47a19.37,19.37,0,0,1-2-.66q-.75,2-1.35,3.92t-1.05,3.66q-.45,1.76-.69,3.3a22.24,22.24,0,0,0-.28,2.85,9.91,9.91,0,0,0,.19,2.36,5.72,5.72,0,0,0,.71,1.84,3.15,3.15,0,0,0,1.25,1.18,3.94,3.94,0,0,0,1.82.39,20.5,20.5,0,0,0,4.76-.58,27.26,27.26,0,0,0,5-1.74,54.39,54.39,0,0,0,5.12-2.68q2.57-1.52,5.16-3.39t5.14-4q2.55-2.14,5.06-4.54t4.89-4.82q2.38-2.42,4.63-4.86t4.33-4.76q2.08-2.33,4-4.54l3.58-4.14Zm-31.5-12a4,4,0,0,0-1.78.49,9.85,9.85,0,0,0-2,1.46,28,28,0,0,0-2.25,2.29q-1.16,1.31-2.4,3T390,78.26q-1.26,1.91-2.53,4.09t-2.51,4.43q-1.24,2.25-2.44,4.57a23.79,23.79,0,0,0,5.49-2,23.09,23.09,0,0,0,4.78-3.26,44.14,44.14,0,0,0,4-4,33,33,0,0,0,3.08-4.07,24.83,24.83,0,0,0,2.06-3.9,13.23,13.23,0,0,0,.94-3.45,4,4,0,0,0-.28-2.42A1.69,1.69,0,0,0,400.94,67.5Z"/><path class="cls-1" d="M516.44,80.1a4.66,4.66,0,0,1,1.09-1.24.76.76,0,0,1,.86-.11,1.85,1.85,0,0,1,.64.68,4,4,0,0,1,.41,1.12,12.34,12.34,0,0,1,.22,1.41,14.88,14.88,0,0,1,.08,1.52,6.72,6.72,0,0,1-.11,1.33,2.11,2.11,0,0,1-.34.84l-1.82,2.74L515,92.1q-1.39,2.1-3,4.39t-3.34,4.76q-1.76,2.47-3.69,5t-4,5.17q-2.1,2.63-4.2,5t-4.2,4.57q-2.1,2.18-4.18,4t-4.14,3.39a24.82,24.82,0,0,1-4,2.46,13.76,13.76,0,0,1-3.62,1.22,4.45,4.45,0,0,1-1.71.15,13.15,13.15,0,0,1-2.42-.45,17.37,17.37,0,0,1-2.79-1,22.22,22.22,0,0,1-2.83-1.59,17.23,17.23,0,0,1-2.63-2.12,17.48,17.48,0,0,1-2.17-2.61,9.46,9.46,0,0,1-1.39-3.07,10.86,10.86,0,0,1-.26-3.53,8.81,8.81,0,0,1,.11-1.33,16.06,16.06,0,0,1,.34-1.59q.22-.86.52-1.82t.68-2q-1.5,1.88-3.08,3.71t-3.22,3.64q-1.65,1.8-3.36,3.41t-3.47,3a40.22,40.22,0,0,1-3.54,2.57,32.92,32.92,0,0,1-3.58,2,18.32,18.32,0,0,1-3.56,1.29,14.64,14.64,0,0,1-3.49.43,8.66,8.66,0,0,1-2-.28,18.77,18.77,0,0,1-2.53-.84,17.26,17.26,0,0,1-2.7-1.39,19.9,19.9,0,0,1-2.55-1.91,17.28,17.28,0,0,1-2.27-2.42,19.62,19.62,0,0,1-1.86-2.91,12,12,0,0,1-1.16-3.37,14.8,14.8,0,0,1-.19-3.83,21.18,21.18,0,0,1,.62-3.09q.47-1.74,1.26-3.88t1.76-4.52q1-2.38,2.14-5l2.38-5.34q1.22-2.72,2.49-5.53t2.49-5.53q1.22-2.72,2.38-5.34T437.2,71q1-2.46,1.76-4.74T440.22,62a24.62,24.62,0,0,0,.62-3.39,2.55,2.55,0,0,1,3-2.55,10.35,10.35,0,0,1,2.77.56A15.46,15.46,0,0,1,449.54,58a23.86,23.86,0,0,1,2.85,2,24.58,24.58,0,0,1,2.55,2.42A10.15,10.15,0,0,1,456.7,65a4.81,4.81,0,0,1,.49,2.34,12.08,12.08,0,0,1-.58,2.29q-.51,1.54-1.44,3.86t-2.06,5q-1.12,2.7-2.44,5.77T448,90.58q-1.39,3.21-2.85,6.54t-2.76,6.39q-1.29,3.06-2.42,5.83T438,114.43q-.81,2.31-1.29,4.14a9.59,9.59,0,0,0-.43,2.76q.06.92.66.92a8.52,8.52,0,0,0,3.54-.92,23.25,23.25,0,0,0,4.33-2.76q2.36-1.84,4.84-4.18t5.06-5.19q2.59-2.85,5.14-6.06t5.06-6.77q2.51-3.56,4.74-7t4.18-6.84q1.72-4,3.24-7.78t2.83-7.14q1.31-3.41,2-6.09a25.55,25.55,0,0,0,.88-4.63,2.39,2.39,0,0,1,2.85-2.55,10.37,10.37,0,0,1,2.77.56,15.43,15.43,0,0,1,2.93,1.39,23.88,23.88,0,0,1,2.85,2,24.66,24.66,0,0,1,2.55,2.42,10.17,10.17,0,0,1,1.76,2.53,4.82,4.82,0,0,1,.49,2.34,13.93,13.93,0,0,1-.39,1.88q-.32,1.2-.88,2.93t-1.28,3.81q-.71,2.08-1.57,4.52t-1.84,5.08q-1,2.64-2.06,5.49t-2.16,5.68q-1.07,2.83-2.12,5.64l-2.06,5.49q-1,2.68-2,5.23T480.93,116q-.79,2.17-1.39,4a5,5,0,0,0-.11,2.48,1.11,1.11,0,0,0,1.16.82,4.17,4.17,0,0,0,1.87-.54,12.72,12.72,0,0,0,2.33-1.63q1.27-1.09,2.7-2.55t3-3.3q1.58-1.84,3.24-3.9t3.43-4.35q1.76-2.29,3.5-4.63t3.47-4.74q1.72-2.4,3.37-4.74t3.23-4.63l3-4.33Q515.17,81.9,516.44,80.1Z"/></g></g></svg>